<svg class="critter"  viewbox="0 0 1500 1500" onmousedown="critterClick(this)" onmouseover="critterOver(this)" onmouseout="critterOut(this)">
    <g id="critter1">
	<path fill-rule="evenodd" clip-rule="evenodd" fill="#664E3D" d="M1016.319,1061.344c-1.624-1.805-14.626-30.877-3.97-42.067&#10;&#9;&#9;c10.651-11.199,39.729,19.856,39.729,19.856L1016.319,1061.344z"/>
	<path fill-rule="evenodd" clip-rule="evenodd" fill="#48372C" d="M1023.001,1052.136c0,0-9.027-20.218-3.248-23.833&#10;&#9;&#9;c5.6-3.795,20.766,12.274,20.766,12.274L1023.001,1052.136z"/>
	<path fill-rule="evenodd" clip-rule="evenodd" fill="#664E3D" d="M1160.966,1059.899c1.804-1.804,14.625-31.056,3.976-42.073&#10;&#9;&#9;c-10.657-11.191-39.548,19.684-39.548,19.684L1160.966,1059.899z"/>
	<path fill-rule="evenodd" clip-rule="evenodd" fill="#48372C" d="M1154.465,1050.512c0,0,8.846-20.045,3.248-23.658&#10;&#9;&#9;c-5.774-3.789-20.766,12.279-20.766,12.279L1154.465,1050.512z"/>
	<path id="tail1" fill-rule="evenodd" clip-rule="evenodd" fill="#48372C" d="M1182.633,1311.45c0,0,109.61,15.889,167.037-32.687&#10;&#9;&#9;c57.422-48.579,60.494-130.375,43.156-173.897c-17.332-43.698-43.697-57.061-65.004-42.073&#10;&#9;&#9;c-21.313,14.805-38.646,78.192-49.482,140.672c-11.012,62.297-36.655,90.105-109.069,94.982&#10;&#9;&#9;C1097.037,1303.506,1182.633,1311.45,1182.633,1311.45L1182.633,1311.45z"/>
	<path id="tail2" fill-rule="evenodd" clip-rule="evenodd" fill="#AB8766" d="M1242.045,1313.435c12.1-0.721,25.283-1.984,38.646-4.69&#10;&#9;&#9;c3.247-24.561-11.92-40.089-23.299-48.219c-5.238,7.408-11.553,13.723-19.142,18.781&#10;&#9;&#9;C1243.488,1289.596,1243.309,1303.32,1242.045,1313.435L1242.045,1313.435z M1325.65,1294.293&#10;&#9;&#9;c8.672-4.336,16.797-9.388,24.02-15.529c4.518-3.975,8.847-7.943,12.642-12.279c-21.313-41.352-58.329-62.117-82.528-71.686&#10;&#9;&#9;c-0.541,2.887-0.903,5.772-1.443,8.666c-2.346,12.82-5.051,24.02-8.848,33.948&#10;&#9;&#9;C1314.459,1253.662,1325.65,1294.111,1325.65,1294.293L1325.65,1294.293z M1393.007,1213.934&#10;&#9;&#9;c5.599-16.609,8.485-33.407,8.852-49.655c-30.88-45.328-72.773-57.608-98.598-60.494c-5.96,15.888-11.378,34.851-15.888,55.075&#10;&#9;&#9;C1339.735,1164.097,1372.602,1186.848,1393.007,1213.934L1393.007,1213.934z"/>
	<path id="handleft" fill-rule="evenodd" clip-rule="evenodd" fill="#664E3D" d="M988.149,1159.942c-3.607,0.728-44.419,14.812-49.296,24.741&#10;&#9;&#9;c-4.878,9.754,17.519,12.82,45.688,0.54C1012.53,1172.943,1003.864,1155.431,988.149,1159.942L988.149,1159.942z"/>
	<path id="handright" fill-rule="evenodd" clip-rule="evenodd" fill="#664E3D" d="M1200.514,1159.942c3.788,0.728,44.419,14.812,49.295,24.741&#10;&#9;&#9;c5.059,9.754-17.518,12.82-45.507,0.54C1176.133,1172.943,1184.799,1155.431,1200.514,1159.942L1200.514,1159.942z"/>
	<path fill-rule="evenodd" clip-rule="evenodd" fill="#664E3D" d="M1022.278,1371.764c0.723-3.613,3.074-46.771-4.329-55.081&#10;&#9;&#9;c-7.224-8.299-18.602,11.558-17.699,42.079C1001.151,1389.457,1020.655,1388.014,1022.278,1371.764L1022.278,1371.764z"/>
	<path fill-rule="evenodd" clip-rule="evenodd" fill="#664E3D" d="M1155.186,1371.043c-0.721-3.796-3.072-46.771,4.336-55.082&#10;&#9;&#9;c7.224-8.305,18.596,11.378,17.693,42.079C1176.494,1388.555,1156.81,1387.292,1155.186,1371.043L1155.186,1371.043z"/>
	<path fill-rule="evenodd" clip-rule="evenodd" fill="#664E3D" d="M987.608,1114.62c21.127-74.938,52.009-88.489,132.366-80.899&#10;&#9;&#9;c32.139,3.248,39.908,13.725,56.699,42.795c21.668,37.918,36.842,98.052,42.615,166.496&#10;&#9;&#9;c8.852,106.903-63.922,124.776-108.528,124.776c-44.599,0-117.373,2.893-134.345-61.034&#10;&#9;&#9;C959.619,1243.012,987.608,1114.62,987.608,1114.62L987.608,1114.62z"/>
	<path fill-rule="evenodd" clip-rule="evenodd" fill="#AB8766" d="M1068.869,1068.571c0,0,16.796,14.987,16.256,31.604&#10;&#9;&#9;c-0.361,16.609-66.454,54.708-84.153,45.681c-17.699-9.207,21.307-64.644,38.646-75.3&#10;&#9;&#9;C1056.954,1059.899,1068.869,1068.571,1068.869,1068.571L1068.869,1068.571z"/>
	<path fill-rule="evenodd" clip-rule="evenodd" fill="#AB8766" d="M1114.736,1068.571c0,0-16.971,14.987-16.43,31.604&#10;&#9;&#9;c0.542,16.609,66.635,54.708,84.326,45.681c17.52-9.207-21.307-64.644-38.644-75.3&#10;&#9;&#9;C1126.656,1059.899,1114.736,1068.571,1114.736,1068.571L1114.736,1068.571z"/>
	<path  fill-rule="evenodd" clip-rule="evenodd" fill="#FFFFFF" d="M1066.162,1099.086c-4.155,33.77-50.565,12.28-32.506-11.552&#10;&#9;&#9;C1043.225,1074.893,1064.719,1079.049,1066.162,1099.086L1066.162,1099.086z"/>
	<path id="lefteye2" fill-rule="evenodd" clip-rule="evenodd" fill="#48372C" d="M1059.661,1100.349c-2.892,23.299-35.031,8.487-22.39-7.944&#10;&#9;&#9;C1043.767,1083.559,1058.578,1086.452,1059.661,1100.349L1059.661,1100.349z"/>
	<path id="lefteye1" fill-rule="evenodd" clip-rule="evenodd" fill="#FFFFFF" d="M1063.45,1095.297c-1.263,10.471-15.708,3.97-10.109-3.613&#10;&#9;&#9;C1056.408,1087.708,1063.09,1089.158,1063.45,1095.297L1063.45,1095.297z"/>
	<path  fill-rule="evenodd" clip-rule="evenodd" fill="#FFFFFF" d="M1150.85,1100.896c-4.148,33.769-50.559,12.281-32.505-11.559&#10;&#9;&#9;C1127.92,1076.697,1149.407,1080.853,1150.85,1100.896L1150.85,1100.896z"/>
	<path id="righteye2" fill-rule="evenodd" clip-rule="evenodd" fill="#48372C" d="M1144.35,1102.16c-2.888,23.291-35.031,8.484-22.39-7.945&#10;&#9;&#9;C1128.642,1085.363,1143.447,1088.255,1144.35,1102.16L1144.35,1102.16z"/>
	<path id="righteye1" fill-rule="evenodd" clip-rule="evenodd" fill="#FFFFFF" d="M1148.144,1097.103c-1.263,10.476-15.708,3.969-10.114-3.608&#10;&#9;&#9;C1141.102,1089.519,1147.783,1090.961,1148.144,1097.103L1148.144,1097.103z"/>
	<path fill-rule="evenodd" clip-rule="evenodd" fill="#FACBD0" d="M1023.548,1137.191c13.363,0,24.374-3.796,24.374-8.486&#10;&#9;&#9;c0-4.697-11.011-8.673-24.374-8.673c-13.549,0-24.381,3.976-24.381,8.673C999.167,1133.396,1009.999,1137.191,1023.548,1137.191&#10;&#9;&#9;L1023.548,1137.191z"/>
	<path fill-rule="evenodd" clip-rule="evenodd" fill="#FACBD0" d="M1153.201,1137.191c13.544,0,24.375-3.796,24.375-8.486&#10;&#9;&#9;c0-4.697-10.831-8.673-24.375-8.673c-13.363,0-24.381,3.976-24.381,8.673C1128.82,1133.396,1139.838,1137.191,1153.201,1137.191&#10;&#9;&#9;L1153.201,1137.191z"/>
	<path fill-rule="evenodd" clip-rule="evenodd" fill="#48372C" d="M1077.535,1122.926c3.614-1.264,8.672-2.171,14.812-1.811&#10;&#9;&#9;c15.89,0.547,19.865,5.238,18.054,13.003c-1.984,7.949-21.848,10.115-29.973,6.867&#10;&#9;&#9;C1066.343,1135.562,1064.358,1127.983,1077.535,1122.926L1077.535,1122.926z"/>
	<path fill-rule="evenodd" clip-rule="evenodd" fill="#E8DED6" d="M1075.369,1166.262c0,0-48.935,6.501-67.897,55.076&#10;&#9;&#9;c-27.988,72.232,11.74,121.709,91.195,118.823c36.655-1.443,81.982-15.528,89.747-46.41&#10;&#9;&#9;C1198.709,1251.678,1198.884,1152.898,1075.369,1166.262L1075.369,1166.262z"/>
</g>
</svg>