<?xml version="1.0" encoding="utf-8"?>
<svg id="master-artboard" viewBox="0 0 1500 1500" version="1.0" xmlns="http://www.w3.org/2000/svg" x="0px" y="0px" width="1500px" height="1500px" enable-background="new 0 0 1500 1500">
<metadata><!--?xpacket begin="﻿" id="W5M0MpCehiHzreSzNTczkc9d"?-->

                                                                                                    
                                                                                                    
                                                                                                    
                                                                                                    
                                                                                                    
                                                                                                    
                                                                                                    
                                                                                                    
                                                                                                    
                                                                                                    
                                                                                                    
                                                                                                    
                                                                                                    
                                                                                                    
                                                                                                    
                                                                                                    
                                                                                                    
                                                                                                    
                                                                                                    
                                                                                                    
                           
<!--?xpacket end="w"?-->
	</metadata>
<path d="M 0 0 H 1500 V 1500 H 0 V 0 Z" fill-rule="evenodd" clip-rule="evenodd" fill="#7ABDB0"/>
<g>
	<path fill-rule="evenodd" clip-rule="evenodd" fill="#F6AAAA" d="M367.502,164.051c0,0,9.213-29.436,5.418-40.811&#10;&#9;&#9;c-3.608-11.375-30.882,14.265-30.882,14.265L367.502,164.051z"/>
	<path fill-rule="evenodd" clip-rule="evenodd" fill="#E38181" d="M363.713,153.217c0,0,3.969-18.962,2.706-21.488&#10;&#9;&#9;c-1.263-2.529-15.528,8.666-15.528,8.666L363.713,153.217z"/>
	<path fill-rule="evenodd" clip-rule="evenodd" fill="#F6AAAA" d="M210.941,164.051c0,0-9.208-29.436-5.419-40.811&#10;&#9;&#9;c3.795-11.375,30.881,14.265,30.881,14.265L210.941,164.051z"/>
	<path fill-rule="evenodd" clip-rule="evenodd" fill="#E38181" d="M214.736,153.217c0,0-3.975-18.962-2.712-21.488&#10;&#9;&#9;c1.263-2.529,15.534,8.666,15.534,8.666L214.736,153.217z"/>
	<path fill="#E38181" d="M379.962,382.371c-1.804-0.18-3.066-1.984-2.706-3.792c0.361-1.807,2.165-3.07,3.97-2.709&#10;&#9;&#9;c0,0,23.478,4.153,39.367,15.711c3.067-5.058,7.403-9.571,13.363-13.362c1.624-1.085,3.614-0.542,4.697,1.083&#10;&#9;&#9;c0.902,1.446,0.542,3.611-1.083,4.513c-5.238,3.434-9.033,7.586-11.739,12.1c7.042,6.862,11.191,15.712,8.485,27.087&#10;&#9;&#9;c-1.624,6.862-4.149,10.833-6.681,12.28c-3.789,2.165-7.223,0.721-9.929-3.431c-1.81-2.89-3.253-7.226-3.614-12.28&#10;&#9;&#9;c-0.722-6.501,0.18-14.445,3.434-22.032C403.254,386.524,380.143,382.552,379.962,382.371L379.962,382.371z M427.635,421.559&#10;&#9;&#9;c1.804-7.768-0.361-13.904-4.877-19.143c-1.984,5.78-2.525,11.556-1.984,16.433c0.36,4.153,1.263,7.403,2.525,9.391l0.908,1.263&#10;&#9;&#9;C425.289,428.781,426.552,426.433,427.635,421.559L427.635,421.559z"/>
	<path fill-rule="evenodd" clip-rule="evenodd" fill="#F6AAAA" d="M188.732,250.91c-3.795,0.722-44.425,14.809-49.302,24.738&#10;&#9;&#9;c-5.052,9.932,17.519,13.002,45.507,0.542C213.106,263.912,204.44,246.397,188.732,250.91L188.732,250.91z"/>
	<path fill-rule="evenodd" clip-rule="evenodd" fill="#F6AAAA" d="M401.089,250.91c3.615,0.722,44.425,14.809,49.296,24.738&#10;&#9;&#9;c4.877,9.932-17.512,13.002-45.682,0.542C376.715,263.912,385.381,246.397,401.089,250.91L401.089,250.91z"/>
	<path fill-rule="evenodd" clip-rule="evenodd" fill="#F6AAAA" d="M237.487,469.953c0.721-3.792,2.886-46.771-4.336-55.076&#10;&#9;&#9;c-7.223-8.309-18.595,11.375-17.693,42.073C216.179,487.648,235.683,486.205,237.487,469.953L237.487,469.953z"/>
	<path fill-rule="evenodd" clip-rule="evenodd" fill="#F6AAAA" d="M352.334,469.953c-0.902-3.792-3.067-46.771,4.156-55.076&#10;&#9;&#9;c7.403-8.309,18.595,11.375,17.873,42.073C373.461,487.648,353.958,486.205,352.334,469.953L352.334,469.953z"/>
	<path fill-rule="evenodd" clip-rule="evenodd" fill="#F6AAAA" d="M188.191,205.586c21.126-74.942,51.822-88.485,132.18-80.719&#10;&#9;&#9;c32.324,3.067,40.088,13.543,56.705,42.615c21.849,37.924,37.016,98.054,42.615,166.496c9.027,106.9-63.928,124.78-108.347,124.78&#10;&#9;&#9;c-44.605,0-117.555,3.069-134.351-60.855C160.195,333.978,188.191,205.586,188.191,205.586L188.191,205.586z"/>
	<path fill-rule="evenodd" clip-rule="evenodd" fill="#FFFFFF" d="M266.558,190.055c-3.969,33.769-50.56,12.461-32.319-11.556&#10;&#9;&#9;C243.807,166.039,265.295,170.191,266.558,190.055L266.558,190.055z"/>
	<path fill-rule="evenodd" clip-rule="evenodd" fill="#48372C" d="M260.057,191.318c-2.707,23.294-34.851,8.489-22.39-7.945&#10;&#9;&#9;C244.349,174.705,259.154,177.415,260.057,191.318L260.057,191.318z"/>
	<path fill-rule="evenodd" clip-rule="evenodd" fill="#FFFFFF" d="M264.032,186.264c-1.263,10.653-15.895,3.972-10.115-3.612&#10;&#9;&#9;C256.809,178.861,263.49,180.124,264.032,186.264L264.032,186.264z"/>
	<path fill-rule="evenodd" clip-rule="evenodd" fill="#FFFFFF" d="M351.252,191.862c-3.975,33.768-50.385,12.458-32.325-11.559&#10;&#9;&#9;C328.501,167.843,349.989,171.998,351.252,191.862L351.252,191.862z"/>
	<path fill-rule="evenodd" clip-rule="evenodd" fill="#48372C" d="M344.932,193.126c-2.894,23.294-35.032,8.485-22.39-7.945&#10;&#9;&#9;C329.036,176.512,343.849,179.402,344.932,193.126L344.932,193.126z"/>
	<path fill-rule="evenodd" clip-rule="evenodd" fill="#FFFFFF" d="M348.72,188.068c-1.263,10.656-15.889,3.975-10.109-3.611&#10;&#9;&#9;C341.497,180.665,348.179,181.928,348.72,188.068L348.72,188.068z"/>
	<path fill-rule="evenodd" clip-rule="evenodd" fill="#E38181" d="M261.687,225.45c0-9.21,8.305-18.961,18.956-20.225&#10;&#9;&#9;c10.657-1.266,23.478,0.36,33.407,11.555c9.935,11.375-0.902,24.378-14.085,25.46c-6.5,0.544-14.265,1.627-20.225,0.725&#10;&#9;&#9;C269.992,241.7,261.687,238.269,261.687,225.45L261.687,225.45z"/>
	<path fill-rule="evenodd" clip-rule="evenodd" fill="#48372C" d="M281.544,229.059c-1.624,14.268-21.487,5.238-13.724-5.055&#10;&#9;&#9;C271.976,218.769,281.003,220.573,281.544,229.059L281.544,229.059z"/>
	<path fill-rule="evenodd" clip-rule="evenodd" fill="#48372C" d="M308.818,229.059c-1.81,14.268-21.494,5.238-13.911-5.055&#10;&#9;&#9;C299.063,218.769,308.09,220.573,308.818,229.059L308.818,229.059z"/>
	<path fill-rule="evenodd" clip-rule="evenodd" fill="#FACBD0" d="M223.943,234.657c13.543,0,24.38-3.972,24.38-8.666&#10;&#9;&#9;c0-4.697-10.837-8.669-24.38-8.669c-13.363,0-24.38,3.972-24.38,8.669C199.563,230.686,210.581,234.657,223.943,234.657&#10;&#9;&#9;L223.943,234.657z"/>
	<path fill-rule="evenodd" clip-rule="evenodd" fill="#FACBD0" d="M353.777,234.657c13.363,0,24.381-3.972,24.381-8.666&#10;&#9;&#9;c0-4.697-11.018-8.669-24.381-8.669c-13.363,0-24.374,3.972-24.374,8.669C329.403,230.686,340.415,234.657,353.777,234.657&#10;&#9;&#9;L353.777,234.657z"/>
</g>
<g>
	<path fill-rule="evenodd" clip-rule="evenodd" fill="#AB8766" d="M680.989,147.979c0,0,0.541-28.53-11.739-32.683&#10;&#9;&#9;s-37.383,3.611-33.768,28.53C639.096,168.568,678.818,165.317,680.989,147.979L680.989,147.979z"/>
	<path fill-rule="evenodd" clip-rule="evenodd" fill="#FAF7E4" d="M668.709,150.508c0,0,8.125-12.278-1.444-21.488&#10;&#9;&#9;c-9.574-9.391-25.102,0-21.313,13.183C649.566,155.205,665.636,155.205,668.709,150.508L668.709,150.508z"/>
	<path fill-rule="evenodd" clip-rule="evenodd" fill="#AB8766" d="M771.456,140.937c0,0,8.306-27.267,21.126-27.448&#10;&#9;&#9;c12.823-0.18,34.491,14.81,23.479,37.38C805.044,173.442,768.209,158.274,771.456,140.937L771.456,140.937z"/>
	<path fill-rule="evenodd" clip-rule="evenodd" fill="#FAF7E4" d="M782.474,147.257c0,0-3.976-14.265,7.944-20.044&#10;&#9;&#9;c11.739-5.959,23.652,7.587,16.25,18.962C799.264,157.55,783.916,152.676,782.474,147.257L782.474,147.257z"/>
	<path fill-rule="evenodd" clip-rule="evenodd" fill="#AB8766" d="M625.547,257.772c-3.789,0.542-44.419,14.809-49.296,24.738&#10;&#9;&#9;c-5.052,9.751,17.519,12.821,45.507,0.542C649.927,270.774,641.261,253.078,625.547,257.772L625.547,257.772z"/>
	<path fill-rule="evenodd" clip-rule="evenodd" fill="#AB8766" d="M830.868,257.772c3.794,0.542,44.419,14.809,49.477,24.738&#10;&#9;&#9;c4.877,9.751-17.693,12.821-45.683,0.542C806.487,270.774,815.159,253.078,830.868,257.772L830.868,257.772z"/>
	<path fill-rule="evenodd" clip-rule="evenodd" fill="#AB8766" d="M652.994,476.634c0.728-3.611,2.893-46.59-4.33-54.895&#10;&#9;&#9;c-7.223-8.309-18.601,11.375-17.699,41.893C631.687,494.33,651.19,492.886,652.994,476.634L652.994,476.634z"/>
	<path fill-rule="evenodd" clip-rule="evenodd" fill="#AB8766" d="M799.625,476.634c-0.722-3.611-3.067-46.59,4.336-54.895&#10;&#9;&#9;c7.224-8.309,18.602,11.375,17.699,41.893C820.938,494.33,801.255,492.886,799.625,476.634L799.625,476.634z"/>
	<path fill-rule="evenodd" clip-rule="evenodd" fill="#AB8766" d="M625.005,212.448c23.118-75.123,54.354-88.486,134.532-80.899&#10;&#9;&#9;c32.144,3.067,39.548,13.724,55.441,42.795c20.767,37.744,34.31,97.874,38.098,166.315c5.96,107.081-67.354,124.96-111.954,124.96&#10;&#9;&#9;c-44.605,0-117.38,2.89-132.546-61.035C593.408,340.659,625.005,212.448,625.005,212.448L625.005,212.448z"/>
	<path fill-rule="evenodd" clip-rule="evenodd" fill="#FAF7E4" d="M725.228,198.18c0,0-31.597,17.519-33.407,28.533&#10;&#9;&#9;c-1.624,11.195,11.919,24.017,41.352,19.864c29.438-3.975,32.325-10.837,33.046-18.421&#10;&#9;&#9;C766.939,220.573,738.951,192.043,725.228,198.18L725.228,198.18z"/>
	<path fill-rule="evenodd" clip-rule="evenodd" fill="#FFFFFF" d="M708.256,194.568c-4.156,33.769-50.565,12.461-32.325-11.556&#10;&#9;&#9;C685.5,170.552,706.807,174.705,708.256,194.568L708.256,194.568z"/>
	<path fill-rule="evenodd" clip-rule="evenodd" fill="#48372C" d="M701.755,195.835c-2.893,23.294-34.851,8.486-22.396-7.948&#10;&#9;&#9;C686.041,179.221,700.853,182.111,701.755,195.835L701.755,195.835z"/>
	<path fill-rule="evenodd" clip-rule="evenodd" fill="#FFFFFF" d="M705.544,190.958c-1.263,10.473-15.708,3.792-10.109-3.611&#10;&#9;&#9;C698.501,183.374,705.183,184.637,705.544,190.958L705.544,190.958z"/>
	<path fill-rule="evenodd" clip-rule="evenodd" fill="#FFFFFF" d="M792.943,196.376c-3.969,33.768-50.558,12.458-32.324-11.375&#10;&#9;&#9;C770.193,172.359,791.5,176.512,792.943,196.376L792.943,196.376z"/>
	<path fill-rule="evenodd" clip-rule="evenodd" fill="#48372C" d="M786.443,197.639c-2.706,23.294-34.852,8.488-22.391-7.945&#10;&#9;&#9;C770.734,181.025,785.54,183.915,786.443,197.639L786.443,197.639z"/>
	<path fill-rule="evenodd" clip-rule="evenodd" fill="#FFFFFF" d="M790.237,192.765c-1.263,10.473-15.708,3.792-10.115-3.611&#10;&#9;&#9;C783.195,185.181,789.876,186.444,790.237,192.765L790.237,192.765z"/>
	<path fill-rule="evenodd" clip-rule="evenodd" fill="#48372C" d="M716.742,216.961c3.615-1.446,8.666-2.168,14.807-1.987&#10;&#9;&#9;c15.895,0.725,19.863,5.238,18.06,13.182c-1.984,7.768-21.849,9.933-29.973,6.862C705.544,229.422,703.56,222.016,716.742,216.961&#10;&#9;&#9;L716.742,216.961z"/>
	<path fill-rule="evenodd" clip-rule="evenodd" fill="#FAF7E4" d="M708.797,269.508c0,0-49.122,6.501-67.897,55.079&#10;&#9;&#9;c-27.989,72.23,11.733,121.71,91.189,118.82c36.661-1.263,81.981-15.528,89.751-46.409&#10;&#9;&#9;C832.13,354.924,832.311,256.148,708.797,269.508L708.797,269.508z"/>
	<path fill-rule="evenodd" clip-rule="evenodd" fill="#E5D9C2" d="M664.733,297.319c0,0-6.321,12.458-2.345,24.197&#10;&#9;&#9;c4.156,11.739,11.92-4.877,10.29-17.335C671.235,291.541,665.997,292.082,664.733,297.319L664.733,297.319z"/>
	<path fill-rule="evenodd" clip-rule="evenodd" fill="#E5D9C2" d="M689.475,297.319c0,0-6.321,12.458-2.345,24.197&#10;&#9;&#9;c4.15,11.739,11.913-4.877,10.47-17.335C695.976,291.541,690.738,292.082,689.475,297.319L689.475,297.319z"/>
	<path fill-rule="evenodd" clip-rule="evenodd" fill="#E5D9C2" d="M714.216,297.319c0,0-6.32,12.458-2.171,24.197&#10;&#9;&#9;c3.976,11.739,11.92-4.877,10.296-17.335C720.717,291.541,715.479,292.082,714.216,297.319L714.216,297.319z"/>
	<path fill-rule="evenodd" clip-rule="evenodd" fill="#E5D9C2" d="M738.951,297.319c0,0-6.321,12.458-2.165,24.197&#10;&#9;&#9;c3.976,11.739,11.92-4.877,10.296-17.335C745.452,291.541,740.214,292.082,738.951,297.319L738.951,297.319z"/>
	<path fill-rule="evenodd" clip-rule="evenodd" fill="#E5D9C2" d="M763.873,297.319c0,0-6.321,12.458-2.346,24.197&#10;&#9;&#9;c3.97,11.739,11.913-4.877,10.29-17.335C770.193,291.541,764.955,292.082,763.873,297.319L763.873,297.319z"/>
	<path fill-rule="evenodd" clip-rule="evenodd" fill="#E5D9C2" d="M788.614,297.319c0,0-6.321,12.458-2.353,24.197&#10;&#9;&#9;c3.976,11.739,11.92-4.877,10.296-17.335C794.934,291.541,789.876,292.082,788.614,297.319L788.614,297.319z"/>
	<path fill-rule="evenodd" clip-rule="evenodd" fill="#E5D9C2" d="M664.733,345.172c0,0-6.321,12.461-2.345,24.197&#10;&#9;&#9;c4.156,11.559,11.92-4.875,10.29-17.516C671.235,339.393,665.997,339.937,664.733,345.172L664.733,345.172z"/>
	<path fill-rule="evenodd" clip-rule="evenodd" fill="#E5D9C2" d="M689.475,345.172c0,0-6.321,12.461-2.345,24.197&#10;&#9;&#9;c4.15,11.559,11.913-4.875,10.47-17.516C695.976,339.393,690.738,339.937,689.475,345.172L689.475,345.172z"/>
	<path fill-rule="evenodd" clip-rule="evenodd" fill="#E5D9C2" d="M714.216,345.172c0,0-6.32,12.461-2.171,24.197&#10;&#9;&#9;c3.976,11.559,11.92-4.875,10.296-17.516C720.717,339.393,715.479,339.937,714.216,345.172L714.216,345.172z"/>
	<path fill-rule="evenodd" clip-rule="evenodd" fill="#E5D9C2" d="M738.951,345.172c0,0-6.321,12.461-2.165,24.197&#10;&#9;&#9;c3.976,11.559,11.92-4.875,10.296-17.516C745.452,339.393,740.214,339.937,738.951,345.172L738.951,345.172z"/>
	<path fill-rule="evenodd" clip-rule="evenodd" fill="#E5D9C2" d="M763.873,345.172c0,0-6.321,12.461-2.346,24.197&#10;&#9;&#9;c3.97,11.559,11.913-4.875,10.29-17.516C770.193,339.393,764.955,339.937,763.873,345.172L763.873,345.172z"/>
	<path fill-rule="evenodd" clip-rule="evenodd" fill="#E5D9C2" d="M788.614,345.172c0,0-6.321,12.461-2.353,24.197&#10;&#9;&#9;c3.976,11.559,11.92-4.875,10.296-17.516C794.934,339.393,789.876,339.937,788.614,345.172L788.614,345.172z"/>
	<path fill-rule="evenodd" clip-rule="evenodd" fill="#E5D9C2" d="M664.733,392.845c0,0-6.321,12.461-2.345,24.197&#10;&#9;&#9;c4.156,11.74,11.92-4.694,10.29-17.335C671.235,387.249,665.997,387.609,664.733,392.845L664.733,392.845z"/>
	<path fill-rule="evenodd" clip-rule="evenodd" fill="#E5D9C2" d="M689.475,392.845c0,0-6.321,12.461-2.345,24.197&#10;&#9;&#9;c4.15,11.74,11.913-4.694,10.47-17.335C695.976,387.249,690.738,387.609,689.475,392.845L689.475,392.845z"/>
	<path fill-rule="evenodd" clip-rule="evenodd" fill="#E5D9C2" d="M714.216,392.845c0,0-6.32,12.461-2.171,24.197&#10;&#9;&#9;c3.976,11.74,11.92-4.694,10.296-17.335C720.717,387.249,715.479,387.609,714.216,392.845L714.216,392.845z"/>
	<path fill-rule="evenodd" clip-rule="evenodd" fill="#E5D9C2" d="M738.951,392.845c0,0-6.321,12.461-2.165,24.197&#10;&#9;&#9;c3.976,11.74,11.92-4.694,10.296-17.335C745.452,387.249,740.214,387.609,738.951,392.845L738.951,392.845z"/>
	<path fill-rule="evenodd" clip-rule="evenodd" fill="#E5D9C2" d="M763.873,392.845c0,0-6.321,12.461-2.346,24.197&#10;&#9;&#9;c3.97,11.74,11.913-4.694,10.29-17.335C770.193,387.249,764.955,387.609,763.873,392.845L763.873,392.845z"/>
	<path fill-rule="evenodd" clip-rule="evenodd" fill="#E5D9C2" d="M788.614,392.845c0,0-6.321,12.461-2.353,24.197&#10;&#9;&#9;c3.976,11.74,11.92-4.694,10.296-17.335C794.934,387.249,789.876,387.609,788.614,392.845L788.614,392.845z"/>
	<path fill-rule="evenodd" clip-rule="evenodd" fill="#FACBD0" d="M660.043,235.924c13.543,0,24.374-3.792,24.374-8.669&#10;&#9;&#9;c0-4.694-10.831-8.486-24.374-8.486c-13.363,0-24.381,3.792-24.381,8.486C635.662,232.132,646.68,235.924,660.043,235.924&#10;&#9;&#9;L660.043,235.924z"/>
	<path fill-rule="evenodd" clip-rule="evenodd" fill="#FACBD0" d="M803.239,237.187c13.363,0,24.381-3.972,24.381-8.669&#10;&#9;&#9;c0-4.694-11.018-8.666-24.381-8.666c-13.542,0-24.38,3.972-24.38,8.666C778.859,233.215,789.697,237.187,803.239,237.187&#10;&#9;&#9;L803.239,237.187z"/>
</g>
<g>
	<path fill-rule="evenodd" clip-rule="evenodd" fill="#48372C" d="M1249.99,382.191c0,0,20.044-11.375,37.924-49.479&#10;&#9;&#9;c18.053-38.281,49.296,1.447,40.27,28.173c-8.854,26.725-38.286,46.951-68.258,46.045&#10;&#9;&#9;C1229.945,406.027,1249.99,382.191,1249.99,382.191L1249.99,382.191z"/>
	<path fill-rule="evenodd" clip-rule="evenodd" fill="#48372C" d="M1268.952,133.533l-23.659,8.489c0,0-12.815-6.501-15.167,7.403&#10;&#9;&#9;c-2.526,13.724-10.471-10.112-10.471-10.112l8.125-10.113l20.586-1.446L1268.952,133.533z"/>
	<path fill-rule="evenodd" clip-rule="evenodd" fill="#5C4637" d="M1219.655,139.313c0,0,8.847-14.446,28.17,5.237&#10;&#9;&#9;c19.321,19.5,24.555,96.247,45.32,100.76c20.953,4.517,26.912-56.519,2.532-92.094c-16.798-24.918-41.713-29.977-57.607-29.255&#10;&#9;&#9;C1229.403,124.326,1216.763,129.2,1219.655,139.313L1219.655,139.313z"/>
	<path fill-rule="evenodd" clip-rule="evenodd" fill="#48372C" d="M1058.218,133.533l23.653,8.489c0,0,12.642-6.501,15.166,7.403&#10;&#9;&#9;c2.533,13.724,10.477-10.112,10.477-10.112l-8.305-10.113l-20.404-1.446L1058.218,133.533z"/>
	<path fill-rule="evenodd" clip-rule="evenodd" fill="#5C4637" d="M1107.514,139.313c0,0-9.026-14.446-28.349,5.237&#10;&#9;&#9;c-19.323,19.5-24.562,96.247-45.328,100.76c-20.766,4.517-26.726-56.519-2.345-92.094c16.79-24.918,41.713-29.977,57.602-29.255&#10;&#9;&#9;C1097.579,124.326,1110.4,129.2,1107.514,139.313L1107.514,139.313z"/>
	<path fill-rule="evenodd" clip-rule="evenodd" fill="#E5D9B1" d="M1060.383,249.647c-3.613,0.721-44.425,14.806-49.296,24.738&#10;&#9;&#9;c-4.877,9.751,17.513,12.822,45.683,0.541C1084.764,262.646,1076.091,245.131,1060.383,249.647L1060.383,249.647z"/>
	<path fill-rule="evenodd" clip-rule="evenodd" fill="#E5D9B1" d="M1265.879,249.647c3.613,0.721,44.424,14.806,49.302,24.738&#10;&#9;&#9;c4.877,9.751-17.519,12.822-45.688,0.541C1241.504,262.646,1250.17,245.131,1265.879,249.647L1265.879,249.647z"/>
	<path fill-rule="evenodd" clip-rule="evenodd" fill="#E5D9B1" d="M1087.831,468.509c0.722-3.614,3.066-46.589-4.336-54.898&#10;&#9;&#9;c-7.224-8.305-18.596,11.378-17.693,42.077C1066.703,486.205,1086.207,484.939,1087.831,468.509L1087.831,468.509z"/>
	<path fill-rule="evenodd" clip-rule="evenodd" fill="#E5D9B1" d="M1234.643,468.509c-0.902-3.614-3.073-46.589,4.148-54.898&#10;&#9;&#9;c7.224-8.305,18.602,11.378,17.881,42.077C1255.769,486.205,1236.267,484.939,1234.643,468.509L1234.643,468.509z"/>
	<path fill-rule="evenodd" clip-rule="evenodd" fill="#48372C" d="M1030.765,261.022c-9.207,4.333-17.513,9.21-19.678,13.363&#10;&#9;&#9;c-3.254,6.501,5.593,10.112,20.405,8.125C1039.076,271.496,1035.281,264.814,1030.765,261.022L1030.765,261.022z"/>
	<path fill-rule="evenodd" clip-rule="evenodd" fill="#48372C" d="M1087.831,468.509c0.179-0.905,0.54-5.058,0.722-10.837&#10;&#9;&#9;c-6.682-4.513-16.069-3.972-22.751-2.887v0.902C1066.703,486.205,1086.207,484.939,1087.831,468.509L1087.831,468.509z"/>
	<path fill-rule="evenodd" clip-rule="evenodd" fill="#48372C" d="M1234.643,468.509c-0.361-0.905-0.722-5.238-0.902-10.837&#10;&#9;&#9;c6.502-3.25,15.528-6.321,22.932-2.707v0.722C1255.769,486.205,1236.267,484.939,1234.643,468.509L1234.643,468.509z"/>
	<path fill-rule="evenodd" clip-rule="evenodd" fill="#48372C" d="M1294.596,260.662c9.748,4.333,18.414,9.391,20.585,13.724&#10;&#9;&#9;c3.608,7.222-7.402,10.654-24.561,7.403C1288.635,273.664,1291.703,265.719,1294.596,260.662L1294.596,260.662z"/>
	<path fill-rule="evenodd" clip-rule="evenodd" fill="#E5D9B1" d="M1059.842,204.321c23.291-74.94,54.354-88.483,134.531-80.9&#10;&#9;&#9;c32.145,3.25,39.729,13.724,55.617,42.799c20.766,37.92,34.129,98.054,37.924,166.492c5.959,106.904-67.355,124.78-111.963,124.78&#10;&#9;&#9;c-44.418,0-117.373,2.89-132.545-61.035C1028.419,332.711,1059.842,204.321,1059.842,204.321L1059.842,204.321z"/>
	<path fill-rule="evenodd" clip-rule="evenodd" fill="#FFFFFF" d="M1143.086,186.625c-3.969,33.588-50.559,12.28-32.325-11.559&#10;&#9;&#9;C1120.336,162.427,1141.823,166.58,1143.086,186.625L1143.086,186.625z"/>
	<path fill-rule="evenodd" clip-rule="evenodd" fill="#48372C" d="M1136.585,187.707c-2.706,23.295-34.851,8.669-22.39-7.944&#10;&#9;&#9;C1120.877,171.094,1135.684,173.983,1136.585,187.707L1136.585,187.707z"/>
	<path fill-rule="evenodd" clip-rule="evenodd" fill="#FFFFFF" d="M1140.561,182.833c-1.263,10.474-15.895,3.792-10.116-3.611&#10;&#9;&#9;C1133.338,175.25,1140.02,176.512,1140.561,182.833L1140.561,182.833z"/>
	<path fill-rule="evenodd" clip-rule="evenodd" fill="#FFFFFF" d="M1227.961,188.429c-4.156,33.587-50.564,12.28-32.505-11.556&#10;&#9;&#9;C1205.023,164.232,1226.518,168.384,1227.961,188.429L1227.961,188.429z"/>
	<path fill-rule="evenodd" clip-rule="evenodd" fill="#48372C" d="M1221.46,189.514c-2.893,23.295-35.03,8.666-22.39-7.947&#10;&#9;&#9;C1205.564,172.901,1220.377,175.791,1221.46,189.514L1221.46,189.514z"/>
	<path fill-rule="evenodd" clip-rule="evenodd" fill="#FFFFFF" d="M1225.249,184.637c-1.264,10.473-15.89,3.792-10.109-3.611&#10;&#9;&#9;C1218.025,177.053,1224.707,178.319,1225.249,184.637L1225.249,184.637z"/>
	<path fill-rule="evenodd" clip-rule="evenodd" fill="#48372C" d="M1151.578,208.834c3.789-1.443,8.666-2.165,14.807-1.984&#10;&#9;&#9;c16.069,0.721,20.045,5.238,18.054,13.183c-1.806,7.944-21.849,9.931-29.794,6.862&#10;&#9;&#9;C1140.38,221.294,1138.39,213.892,1151.578,208.834L1151.578,208.834z"/>
	<path fill-rule="evenodd" clip-rule="evenodd" fill="#FAF7E4" d="M1143.628,261.383c0,0-48.937,6.501-67.718,55.076&#10;&#9;&#9;c-28.168,72.233,11.559,121.709,91.016,118.823c36.654-1.266,82.162-15.531,89.746-46.41&#10;&#9;&#9;C1266.968,346.799,1267.146,248.021,1143.628,261.383L1143.628,261.383z"/>
	<path fill-rule="evenodd" clip-rule="evenodd" fill="#E5D9C2" d="M1099.57,289.192c0,0-6.321,12.46-2.165,24.2&#10;&#9;&#9;c3.968,11.736,11.913-4.697,10.289-17.338C1106.07,283.416,1100.832,283.957,1099.57,289.192L1099.57,289.192z"/>
	<path fill-rule="evenodd" clip-rule="evenodd" fill="#E5D9C2" d="M1124.491,289.192c0,0-6.507,12.46-2.353,24.2&#10;&#9;&#9;c3.976,11.736,11.921-4.697,10.297-17.338C1130.805,283.416,1125.574,283.957,1124.491,289.192L1124.491,289.192z"/>
	<path fill-rule="evenodd" clip-rule="evenodd" fill="#E5D9C2" d="M1149.227,289.192c0,0-6.32,12.46-2.346,24.2&#10;&#9;&#9;c3.969,11.736,11.914-4.697,10.29-17.338C1155.547,283.416,1150.309,283.957,1149.227,289.192L1149.227,289.192z"/>
	<path fill-rule="evenodd" clip-rule="evenodd" fill="#E5D9C2" d="M1173.968,289.192c0,0-6.32,12.46-2.345,24.2&#10;&#9;&#9;c4.149,11.736,11.913-4.697,10.289-17.338C1180.288,283.416,1175.23,283.957,1173.968,289.192L1173.968,289.192z"/>
	<path fill-rule="evenodd" clip-rule="evenodd" fill="#E5D9C2" d="M1198.709,289.192c0,0-6.32,12.46-2.352,24.2&#10;&#9;&#9;c4.156,11.736,11.92-4.697,10.296-17.338C1205.023,283.416,1199.972,283.957,1198.709,289.192L1198.709,289.192z"/>
	<path fill-rule="evenodd" clip-rule="evenodd" fill="#E5D9C2" d="M1223.444,289.192c0,0-6.321,12.46-2.345,24.2&#10;&#9;&#9;c4.149,11.736,11.912-4.697,10.47-17.338C1229.945,283.416,1224.707,283.957,1223.444,289.192L1223.444,289.192z"/>
	<path fill-rule="evenodd" clip-rule="evenodd" fill="#E5D9C2" d="M1099.57,337.044c0,0-6.321,12.461-2.165,24.201&#10;&#9;&#9;c3.968,11.736,11.913-4.878,10.289-17.335C1106.07,331.269,1100.832,331.81,1099.57,337.044L1099.57,337.044z"/>
	<path fill-rule="evenodd" clip-rule="evenodd" fill="#E5D9C2" d="M1124.491,337.044c0,0-6.507,12.461-2.353,24.201&#10;&#9;&#9;c3.976,11.736,11.921-4.878,10.297-17.335C1130.805,331.269,1125.574,331.81,1124.491,337.044L1124.491,337.044z"/>
	<path fill-rule="evenodd" clip-rule="evenodd" fill="#E5D9C2" d="M1149.227,337.044c0,0-6.32,12.461-2.346,24.201&#10;&#9;&#9;c3.969,11.736,11.914-4.878,10.29-17.335C1155.547,331.269,1150.309,331.81,1149.227,337.044L1149.227,337.044z"/>
	<path fill-rule="evenodd" clip-rule="evenodd" fill="#E5D9C2" d="M1173.968,337.044c0,0-6.32,12.461-2.345,24.201&#10;&#9;&#9;c4.149,11.736,11.913-4.878,10.289-17.335C1180.288,331.269,1175.23,331.81,1173.968,337.044L1173.968,337.044z"/>
	<path fill-rule="evenodd" clip-rule="evenodd" fill="#E5D9C2" d="M1198.709,337.044c0,0-6.32,12.461-2.352,24.201&#10;&#9;&#9;c4.156,11.736,11.92-4.878,10.296-17.335C1205.023,331.269,1199.972,331.81,1198.709,337.044L1198.709,337.044z"/>
	<path fill-rule="evenodd" clip-rule="evenodd" fill="#E5D9C2" d="M1223.444,337.044c0,0-6.321,12.461-2.345,24.201&#10;&#9;&#9;c4.149,11.736,11.912-4.878,10.47-17.335C1229.945,331.269,1224.707,331.81,1223.444,337.044L1223.444,337.044z"/>
	<path fill-rule="evenodd" clip-rule="evenodd" fill="#E5D9C2" d="M1099.57,384.9c0,0-6.321,12.458-2.165,24.197&#10;&#9;&#9;c3.968,11.556,11.913-4.877,10.289-17.516C1106.07,379.121,1100.832,379.662,1099.57,384.9L1099.57,384.9z"/>
	<path fill-rule="evenodd" clip-rule="evenodd" fill="#E5D9C2" d="M1124.491,384.9c0,0-6.507,12.458-2.353,24.197&#10;&#9;&#9;c3.976,11.556,11.921-4.877,10.297-17.516C1130.805,379.121,1125.574,379.662,1124.491,384.9L1124.491,384.9z"/>
	<path fill-rule="evenodd" clip-rule="evenodd" fill="#E5D9C2" d="M1149.227,384.9c0,0-6.32,12.458-2.346,24.197&#10;&#9;&#9;c3.969,11.556,11.914-4.877,10.29-17.516C1155.547,379.121,1150.309,379.662,1149.227,384.9L1149.227,384.9z"/>
	<path fill-rule="evenodd" clip-rule="evenodd" fill="#E5D9C2" d="M1173.968,384.9c0,0-6.32,12.458-2.345,24.197&#10;&#9;&#9;c4.149,11.556,11.913-4.877,10.289-17.516C1180.288,379.121,1175.23,379.662,1173.968,384.9L1173.968,384.9z"/>
	<path fill-rule="evenodd" clip-rule="evenodd" fill="#E5D9C2" d="M1198.709,384.9c0,0-6.32,12.458-2.352,24.197&#10;&#9;&#9;c4.156,11.556,11.92-4.877,10.296-17.516C1205.023,379.121,1199.972,379.662,1198.709,384.9L1198.709,384.9z"/>
	<path fill-rule="evenodd" clip-rule="evenodd" fill="#E5D9C2" d="M1223.444,384.9c0,0-6.321,12.458-2.345,24.197&#10;&#9;&#9;c4.149,11.556,11.912-4.877,10.47-17.516C1229.945,379.121,1224.707,379.662,1223.444,384.9L1223.444,384.9z"/>
	<path fill-rule="evenodd" clip-rule="evenodd" fill="#E38181" d="M1095.955,227.976c13.543,0,24.381-3.792,24.381-8.666&#10;&#9;&#9;c0-4.697-10.838-8.489-24.381-8.489c-13.363,0-24.375,3.792-24.375,8.489C1071.58,224.184,1082.592,227.976,1095.955,227.976&#10;&#9;&#9;L1095.955,227.976z"/>
	<path fill-rule="evenodd" clip-rule="evenodd" fill="#E38181" d="M1231.027,229.059c13.363,0,24.381-3.789,24.381-8.667&#10;&#9;&#9;c0-4.694-11.018-8.486-24.381-8.486c-13.543,0-24.374,3.792-24.374,8.486C1206.653,225.27,1217.484,229.059,1231.027,229.059&#10;&#9;&#9;L1231.027,229.059z"/>
</g>
<g>
	<path fill-rule="evenodd" clip-rule="evenodd" fill="#F3BD48" d="M673.406,583.718c0,0-26.545-22.573-38.104-25.282&#10;&#9;&#9;c-11.74-2.71,5.599,57.964,7.403,60.494C644.509,621.278,673.406,583.718,673.406,583.718L673.406,583.718z"/>
	<path fill-rule="evenodd" clip-rule="evenodd" fill="#E57425" d="M662.208,586.604c0,0-13.543-11.556-18.241-11.375&#10;&#9;&#9;c-4.697,0.361,3.253,29.255,3.253,29.255L662.208,586.604z"/>
	<path fill-rule="evenodd" clip-rule="evenodd" fill="#F3BD48" d="M771.275,586.063c0,0,26.546-22.57,38.285-25.279&#10;&#9;&#9;c11.552-2.709-5.779,57.965-7.403,60.494C800.347,623.626,771.275,586.063,771.275,586.063L771.275,586.063z"/>
	<path fill-rule="evenodd" clip-rule="evenodd" fill="#E57425" d="M782.474,588.953c0,0,13.724-11.555,18.42-11.375&#10;&#9;&#9;c4.691,0.361-3.253,29.251-3.253,29.251L782.474,588.953z"/>
	<path fill="#E57425" d="M780.303,834.54c-3.608-4.874-2.346-11.919,2.713-15.528c5.058-3.613,11.918-2.348,15.527,2.526&#10;&#9;&#9;c13.724,19.323,28.53,26.907,41.171,27.086c5.058,0,9.755-1.262,13.724-3.43c3.796-1.985,7.223-5.055,9.574-8.847&#10;&#9;&#9;c4.511-7.407,5.594-17.516,0.722-28.173c-2.712-5.596-0.18-12.276,5.419-14.806c5.599-2.71,12.274-0.182,14.807,5.418&#10;&#9;&#9;c8.485,18.237,6.5,36.113-1.99,49.477c-4.512,7.042-10.651,12.642-17.875,16.613c-7.221,3.974-15.708,6.142-24.56,6.142&#10;&#9;&#9;C820.571,870.837,798.903,860.545,780.303,834.54L780.303,834.54z"/>
	<path fill-rule="evenodd" clip-rule="evenodd" fill="#F3BD48" d="M617.061,700.189c-3.608,0.542-44.418,14.81-49.296,24.561&#10;&#9;&#9;c-4.877,9.929,17.519,12.999,45.688,0.722C641.441,713.011,632.776,695.495,617.061,700.189L617.061,700.189z"/>
	<path fill-rule="evenodd" clip-rule="evenodd" fill="#F3BD48" d="M822.563,700.189c3.608,0.542,44.237,14.81,49.296,24.561&#10;&#9;&#9;c4.877,9.929-17.699,12.999-45.688,0.722C798.182,713.011,806.668,695.495,822.563,700.189L822.563,700.189z"/>
	<path fill-rule="evenodd" clip-rule="evenodd" fill="#F3BD48" d="M644.509,919.051c0.721-3.611,2.893-46.771-4.33-55.074&#10;&#9;&#9;c-7.223-8.31-18.602,11.374-17.699,42.072C623.201,936.747,642.885,935.304,644.509,919.051L644.509,919.051z"/>
	<path fill-rule="evenodd" clip-rule="evenodd" fill="#F3BD48" d="M791.14,919.051c-0.722-3.611-2.888-46.771,4.336-55.074&#10;&#9;&#9;c7.223-8.31,18.595,11.374,17.693,42.072C812.447,936.747,792.943,935.304,791.14,919.051L791.14,919.051z"/>
	<path fill-rule="evenodd" clip-rule="evenodd" fill="#F3BD48" d="M616.52,654.865c23.118-75.123,54.354-88.666,134.531-80.899&#10;&#9;&#9;c32.145,3.07,39.547,13.724,55.617,42.798c20.585,37.741,34.129,97.871,37.924,166.312c5.96,107.081-67.356,124.78-111.961,124.78&#10;&#9;&#9;c-44.599,0-117.374,3.069-132.541-60.856C585.097,783.076,616.52,654.865,616.52,654.865L616.52,654.865z"/>
	<path fill-rule="evenodd" clip-rule="evenodd" fill="#48372C" d="M708.256,659.379c3.608-1.443,8.666-2.345,14.806-1.985&#10;&#9;&#9;c15.889,0.722,20.044,5.235,18.06,13c-1.991,7.947-21.854,10.112-29.799,6.865C697.059,671.84,695.074,664.256,708.256,659.379&#10;&#9;&#9;L708.256,659.379z"/>
	<path fill-rule="evenodd" clip-rule="evenodd" fill="#FAF7E4" d="M700.312,711.748c0,0-48.941,6.501-67.897,55.075&#10;&#9;&#9;c-27.995,72.414,11.733,121.89,91.189,119.001c36.654-1.443,81.981-15.528,89.746-46.587&#10;&#9;&#9;C823.645,797.341,823.826,698.565,700.312,711.748L700.312,711.748z"/>
	<path fill-rule="evenodd" clip-rule="evenodd" fill="#FACBD0" d="M651.551,686.826c13.543,0,24.381-3.972,24.381-8.666&#10;&#9;&#9;c0-4.697-10.837-8.669-24.381-8.669c-13.363,0-24.374,3.972-24.374,8.669C627.177,682.854,638.188,686.826,651.551,686.826&#10;&#9;&#9;L651.551,686.826z"/>
	<path fill-rule="evenodd" clip-rule="evenodd" fill="#FACBD0" d="M794.755,687.912c13.356,0,24.374-3.792,24.374-8.488&#10;&#9;&#9;c0-4.875-11.018-8.666-24.374-8.666c-13.363,0-24.381,3.792-24.381,8.666C770.374,684.12,781.392,687.912,794.755,687.912&#10;&#9;&#9;L794.755,687.912z"/>
	<path fill-rule="evenodd" clip-rule="evenodd" fill="#E57425" d="M758.455,574.868v28.172c0,4.694-3.97,8.666-8.667,8.666l0,0&#10;&#9;&#9;c-4.697,0-8.667-3.972-8.667-8.666v-29.979c3.248,0.184,6.501,0.544,9.929,0.905C753.764,574.146,756.109,574.507,758.455,574.868&#10;&#9;&#9;L758.455,574.868z"/>
	<path fill-rule="evenodd" clip-rule="evenodd" fill="#E57425" d="M729.203,572.339v40.63c0,4.697-3.976,8.669-8.667,8.669l0,0&#10;&#9;&#9;c-4.877,0-8.672-3.972-8.672-8.669v-40.81C717.283,571.979,723.063,571.979,729.203,572.339L729.203,572.339z"/>
	<path fill-rule="evenodd" clip-rule="evenodd" fill="#E57425" d="M699.951,572.7v26.004c0,4.877-3.975,8.668-8.672,8.668l0,0&#10;&#9;&#9;c-4.878,0-8.667-3.792-8.667-8.668V575.59C687.851,574.146,693.63,573.245,699.951,572.7L699.951,572.7z"/>
	<path fill="#48372C" d="M667.987,645.475c-0.361,2.529-2.713,4.152-5.238,3.792c-2.346-0.361-4.156-2.71-3.608-5.055&#10;&#9;&#9;c0-0.18,3.608-23.656,17.151-25.643c14.446-2.168,19.323,25.283,19.323,25.463c0.541,2.345-1.083,4.694-3.435,5.235&#10;&#9;&#9;c-2.525,0.541-4.871-1.083-5.412-3.611c0,0-3.434-18.962-9.213-18.238C670.693,628.5,667.987,645.475,667.987,645.475&#10;&#9;&#9;L667.987,645.475z"/>
	<path fill="#48372C" d="M773.08,645.475c0.36,2.529,2.712,4.152,5.058,3.792c2.525-0.361,4.155-2.71,3.795-5.055&#10;&#9;&#9;c0-0.18-3.795-23.656-17.158-25.643c-14.625-2.168-19.322,25.283-19.502,25.463c-0.361,2.345,1.083,4.694,3.614,5.235&#10;&#9;&#9;c2.345,0.541,4.877-1.083,5.239-3.611c0,0,3.607-18.962,9.387-18.238C770.374,628.5,773.08,645.475,773.08,645.475L773.08,645.475z&#10;&#9;&#9;"/>
</g>
<g>
	<path fill-rule="evenodd" clip-rule="evenodd" fill="#E38181" d="M1277.979,837.43c0,0,22.757-25.643,44.063,0.542&#10;&#9;&#9;c21.307,26.365-31.783,108.526-81.08,86.498C1186.248,899.912,1277.979,837.43,1277.979,837.43L1277.979,837.43z"/>
	<path fill-rule="evenodd" clip-rule="evenodd" fill="#F6AAAA" d="M1096.857,647.099c0,0-32.686-77.646-27.809-108.888&#10;&#9;&#9;c4.877-31.239,49.482,25.282,53.452,87.581C1126.476,688.273,1096.857,647.099,1096.857,647.099L1096.857,647.099z"/>
	<path fill-rule="evenodd" clip-rule="evenodd" fill="#E38181" d="M1100.472,630.488c0,0-19.503-53.632-19.322-65.01&#10;&#9;&#9;c0.36-11.375,11.018-28.53,31.423,57.968L1100.472,630.488z"/>
	<path fill-rule="evenodd" clip-rule="evenodd" fill="#F6AAAA" d="M1219.655,647.099c0,0,32.681-77.646,27.808-108.888&#10;&#9;&#9;c-5.057-31.239-49.661,25.282-53.631,87.581C1189.856,688.273,1219.655,647.099,1219.655,647.099L1219.655,647.099z"/>
	<path fill-rule="evenodd" clip-rule="evenodd" fill="#E38181" d="M1215.861,630.488c0,0,19.684-53.632,19.322-65.01&#10;&#9;&#9;c-0.181-11.375-10.838-28.53-31.423,57.968L1215.861,630.488z"/>
	<path fill-rule="evenodd" clip-rule="evenodd" fill="#F6AAAA" d="M1063.45,736.306c-3.789,0.541-44.419,14.806-49.297,24.557&#10;&#9;&#9;c-5.058,9.933,17.52,13.003,45.508,0.723C1087.831,749.127,1079.165,731.612,1063.45,736.306L1063.45,736.306z"/>
	<path fill-rule="evenodd" clip-rule="evenodd" fill="#F6AAAA" d="M1275.813,736.306c3.608,0.541,44.419,14.806,49.297,24.557&#10;&#9;&#9;c4.876,9.933-17.514,13.003-45.688,0.723C1251.433,749.127,1260.099,731.612,1275.813,736.306L1275.813,736.306z"/>
	<path fill-rule="evenodd" clip-rule="evenodd" fill="#F6AAAA" d="M1097.405,947.945c0.901-3.612,3.066-46.59-4.156-54.896&#10;&#9;&#9;c-7.224-8.308-18.602,11.376-17.88,42.073C1076.271,965.641,1095.775,964.378,1097.405,947.945L1097.405,947.945z"/>
	<path fill-rule="evenodd" clip-rule="evenodd" fill="#F6AAAA" d="M1230.486,947.223c-0.901-3.613-3.066-46.771,4.156-54.897&#10;&#9;&#9;c7.402-8.306,18.602,11.378,17.879,41.896C1251.614,964.92,1232.109,963.473,1230.486,947.223L1230.486,947.223z"/>
	<path fill-rule="evenodd" clip-rule="evenodd" fill="#F6AAAA" d="M1062.908,690.982c21.134-75.123,51.828-88.666,132.188-80.899&#10;&#9;&#9;c32.324,3.066,40.088,13.724,56.697,42.795c21.856,37.74,37.022,97.873,42.622,166.314&#10;&#9;&#9;c9.026,107.081-63.929,124.777-108.534,124.777c-44.419,0-117.373,3.073-134.163-60.854&#10;&#9;&#9;C1034.919,819.192,1062.908,690.982,1062.908,690.982L1062.908,690.982z"/>
	<path fill-rule="evenodd" clip-rule="evenodd" fill="#FFFFFF" d="M1141.283,675.451c-3.976,33.587-50.56,12.277-32.326-11.556&#10;&#9;&#9;C1118.531,651.254,1140.02,655.406,1141.283,675.451L1141.283,675.451z"/>
	<path fill-rule="evenodd" clip-rule="evenodd" fill="#48372C" d="M1134.781,676.533c-2.707,23.295-34.851,8.669-22.391-7.944&#10;&#9;&#9;C1119.072,659.92,1133.879,662.81,1134.781,676.533L1134.781,676.533z"/>
	<path fill-rule="evenodd" clip-rule="evenodd" fill="#FFFFFF" d="M1138.756,671.659c-1.448,10.473-15.895,3.792-10.114-3.611&#10;&#9;&#9;C1131.533,664.076,1138.215,665.338,1138.756,671.659L1138.756,671.659z"/>
	<path fill-rule="evenodd" clip-rule="evenodd" fill="#FFFFFF" d="M1225.971,677.258c-3.97,33.584-50.559,12.277-32.32-11.559&#10;&#9;&#9;C1203.22,653.058,1224.707,657.214,1225.971,677.258L1225.971,677.258z"/>
	<path fill-rule="evenodd" clip-rule="evenodd" fill="#48372C" d="M1219.477,678.341c-2.714,23.295-34.858,8.666-22.397-7.947&#10;&#9;&#9;C1203.761,661.728,1218.567,664.617,1219.477,678.341L1219.477,678.341z"/>
	<path fill-rule="evenodd" clip-rule="evenodd" fill="#FFFFFF" d="M1223.444,673.463c-1.263,10.477-15.889,3.795-10.11-3.611&#10;&#9;&#9;C1216.222,665.88,1222.903,667.143,1223.444,673.463L1223.444,673.463z"/>
	<path fill-rule="evenodd" clip-rule="evenodd" fill="#FACBD0" d="M1098.667,719.873c13.545,0,24.375-3.792,24.375-8.667&#10;&#9;&#9;c0-4.697-10.83-8.488-24.375-8.488c-13.362,0-24.38,3.792-24.38,8.488C1074.287,716.081,1085.305,719.873,1098.667,719.873&#10;&#9;&#9;L1098.667,719.873z"/>
	<path fill-rule="evenodd" clip-rule="evenodd" fill="#FACBD0" d="M1228.502,719.873c13.363,0,24.381-3.792,24.381-8.667&#10;&#9;&#9;c0-4.697-11.018-8.488-24.381-8.488c-13.362,0-24.38,3.792-24.38,8.488C1204.122,716.081,1215.14,719.873,1228.502,719.873&#10;&#9;&#9;L1228.502,719.873z"/>
	<path fill-rule="evenodd" clip-rule="evenodd" fill="#FAF7E4" d="M1130.805,710.482c-1.622,10.112,10.839,22.032,38.104,18.241&#10;&#9;&#9;c27.087-3.792,29.613-9.932,30.335-16.975C1202.138,681.591,1136.225,675.271,1130.805,710.482L1130.805,710.482z"/>
	<path fill-rule="evenodd" clip-rule="evenodd" fill="#48372C" d="M1152.661,699.287c3.788-1.443,8.846-2.168,14.986-1.987&#10;&#9;&#9;c15.889,0.724,19.864,5.238,17.873,13.182c-1.805,7.767-21.669,9.932-29.793,6.862&#10;&#9;&#9;C1141.644,711.748,1139.478,704.345,1152.661,699.287L1152.661,699.287z"/>
	<path fill-rule="evenodd" clip-rule="evenodd" fill="#FAF7E4" d="M1150.67,752.379c0,0-49.115,6.501-67.897,55.074&#10;&#9;&#9;c-27.988,72.233,11.74,121.71,91.195,118.82c36.475-1.264,81.982-15.528,89.565-46.405&#10;&#9;&#9;C1274.01,837.79,1274.01,739.015,1150.67,752.379L1150.67,752.379z"/>
</g>
<g>
	<path fill-rule="evenodd" clip-rule="evenodd" fill="#48372C" d="M403.802,712.289c5.051,2.71,57.06,42.435,59.585,59.048&#10;&#9;&#9;c2.352,16.614-31.597,10.474-66.267-20.766C362.444,719.512,383.216,698.205,403.802,712.289L403.802,712.289z"/>
	<path fill-rule="evenodd" clip-rule="evenodd" fill="#48372C" d="M186.02,712.289c-5.052,2.71-57.241,42.435-59.592,59.048&#10;&#9;&#9;c-2.526,16.614,31.603,10.474,66.274-20.766C227.371,719.512,206.605,698.205,186.02,712.289L186.02,712.289z"/>
	<path fill-rule="evenodd" clip-rule="evenodd" fill="#48372C" d="M219.788,906.773c0.902-3.615,3.073-46.771-4.149-55.078&#10;&#9;&#9;c-7.223-8.125-18.601,11.559-17.879,42.075C198.66,924.47,218.164,923.023,219.788,906.773L219.788,906.773z"/>
	<path fill-rule="evenodd" clip-rule="evenodd" fill="#48372C" d="M366.599,906.773c-0.721-3.615-3.067-46.771,4.336-55.078&#10;&#9;&#9;c7.223-8.125,18.595,11.559,17.693,42.075C387.727,924.47,368.223,923.023,366.599,906.773L366.599,906.773z"/>
	<path fill-rule="evenodd" clip-rule="evenodd" fill="#48372C" d="M191.979,653.419c23.118-75.12,54.354-88.663,134.532-80.899&#10;&#9;&#9;c32.145,3.07,39.547,13.724,55.436,42.798c20.772,37.741,34.31,97.874,38.104,166.313c5.96,107.083-67.356,124.779-111.961,124.779&#10;&#9;&#9;c-44.6,0-117.554,3.07-132.541-60.854C160.382,781.63,191.979,653.419,191.979,653.419L191.979,653.419z"/>
	<path fill-rule="evenodd" clip-rule="evenodd" fill="#FAF7E4" d="M361.181,896.658c-18.054,7.586-37.376,9.751-53.091,9.751&#10;&#9;&#9;c-35.392,0-88.663,1.988-116.652-29.432c-30.334-83.79,18.06-120.628,25.283-162.343c7.403-43.156-0.722-98.415,18.421-111.053&#10;&#9;&#9;c10.469-7.042,22.028-0.725,34.489,5.596c36.113,18.06,25.463,5.238,54.715-7.403c18.24-7.764,48.754-3.431,49.477,33.587&#10;&#9;&#9;c0.722,36.838-2.526,54.354,18.24,128.752c20.947,74.218-15.167,120.988-15.167,120.988L361.181,896.658z"/>
	<path fill-rule="evenodd" clip-rule="evenodd" fill="#FFFFFF" d="M275.224,635.543c-4.149,33.768-50.559,12.28-32.319-11.556&#10;&#9;&#9;C252.473,611.346,273.781,615.499,275.224,635.543L275.224,635.543z"/>
	<path fill-rule="evenodd" clip-rule="evenodd" fill="#48372C" d="M268.729,636.809c-2.893,23.292-35.037,8.485-22.396-7.947&#10;&#9;&#9;C253.014,620.012,267.82,622.901,268.729,636.809L268.729,636.809z"/>
	<path fill-rule="evenodd" clip-rule="evenodd" fill="#FFFFFF" d="M272.517,631.751c-1.262,10.473-15.708,3.972-10.109-3.611&#10;&#9;&#9;C265.475,624.167,272.157,625.611,272.517,631.751L272.517,631.751z"/>
	<path fill-rule="evenodd" clip-rule="evenodd" fill="#FFFFFF" d="M359.917,637.35c-3.968,33.768-50.559,12.458-32.324-11.559&#10;&#9;&#9;C337.167,613.149,358.475,617.485,359.917,637.35L359.917,637.35z"/>
	<path fill-rule="evenodd" clip-rule="evenodd" fill="#48372C" d="M353.417,638.612c-2.707,23.295-34.851,8.486-22.39-7.944&#10;&#9;&#9;C337.708,621.819,352.515,624.708,353.417,638.612L353.417,638.612z"/>
	<path fill-rule="evenodd" clip-rule="evenodd" fill="#FFFFFF" d="M357.211,633.555c-1.262,10.656-15.714,3.975-10.115-3.608&#10;&#9;&#9;C350.169,626.152,356.851,627.417,357.211,633.555L357.211,633.555z"/>
	<path fill-rule="evenodd" clip-rule="evenodd" fill="#FACBD0" d="M227.01,676.894c13.363,0,24.38-3.972,24.38-8.666&#10;&#9;&#9;c0-4.697-11.018-8.669-24.38-8.669s-24.375,3.972-24.375,8.669C202.636,672.922,213.647,676.894,227.01,676.894L227.01,676.894z"/>
	<path fill-rule="evenodd" clip-rule="evenodd" fill="#FACBD0" d="M370.214,677.979c13.363,0,24.375-3.794,24.375-8.488&#10;&#9;&#9;s-11.012-8.669-24.375-8.669c-13.543,0-24.381,3.975-24.381,8.669S356.67,677.979,370.214,677.979L370.214,677.979z"/>
	<path fill-rule="evenodd" clip-rule="evenodd" fill="#F3BD48" d="M297.62,650.172c0,0-13.182,16.791-15.167,22.75&#10;&#9;&#9;c-1.991,5.959,15.889,22.032,19.684,22.212c3.607,0.36,20.946-14.99,21.487-22.212c0.542-7.223-14.265-21.849-18.06-25.824&#10;&#9;&#9;C301.775,643.126,297.62,650.172,297.62,650.172L297.62,650.172z"/>
	<path fill-rule="evenodd" clip-rule="evenodd" fill="#F1AA3D" d="M282.453,673.463c-0.909,6.321,16.069,21.491,19.684,21.671&#10;&#9;&#9;c3.607,0.36,20.946-14.99,21.487-22.212c0-0.902-0.18-1.985-0.541-3.25c-3.795,2.89-11.198,7.767-21.668,8.669&#10;&#9;&#9;C294.907,678.882,288.052,676.353,282.453,673.463L282.453,673.463z"/>
</g>
<g>
	<path fill-rule="evenodd" clip-rule="evenodd" fill="#E57425" d="M680.989,1046.363c0,0,0.541-28.356-11.739-32.512&#10;&#9;&#9;c-12.28-4.15-37.383,3.614-33.768,28.355C639.096,1067.129,678.818,1063.875,680.989,1046.363L680.989,1046.363z"/>
	<path fill-rule="evenodd" clip-rule="evenodd" fill="#FAF7E4" d="M668.709,1048.889c0,0,8.125-12.101-1.444-21.488&#10;&#9;&#9;c-9.574-9.213-25.102,0.174-21.313,13.177C649.566,1053.766,665.636,1053.766,668.709,1048.889L668.709,1048.889z"/>
	<path fill-rule="evenodd" clip-rule="evenodd" fill="#E57425" d="M771.456,1039.494c0,0,8.306-27.26,21.126-27.447&#10;&#9;&#9;c12.823-0.36,34.491,14.807,23.479,37.383C805.044,1072,768.209,1056.832,771.456,1039.494L771.456,1039.494z"/>
	<path fill-rule="evenodd" clip-rule="evenodd" fill="#FAF7E4" d="M782.474,1045.642c0,0-3.976-14.091,7.944-20.044&#10;&#9;&#9;c11.739-5.961,23.652,7.763,16.25,19.135C799.264,1056.111,783.916,1051.054,782.474,1045.642L782.474,1045.642z"/>
	<path fill-rule="evenodd" clip-rule="evenodd" fill="#EDE2C3" d="M625.547,1156.153c-3.789,0.721-44.419,14.807-49.296,24.733&#10;&#9;&#9;c-5.052,9.936,17.519,13.003,45.507,0.549C649.927,1169.154,641.261,1151.637,625.547,1156.153L625.547,1156.153z"/>
	<path fill-rule="evenodd" clip-rule="evenodd" fill="#EDE2C3" d="M830.868,1156.153c3.794,0.721,44.419,14.807,49.477,24.733&#10;&#9;&#9;c4.877,9.936-17.693,13.003-45.683,0.549C806.487,1169.154,815.159,1151.637,830.868,1156.153L830.868,1156.153z"/>
	<path fill-rule="evenodd" clip-rule="evenodd" fill="#EDE2C3" d="M652.994,1375.192c0.728-3.789,2.893-46.771-4.33-55.076&#10;&#9;&#9;c-7.223-8.306-18.601,11.378-17.699,42.073C631.687,1392.71,651.19,1391.447,652.994,1375.192L652.994,1375.192z"/>
	<path fill-rule="evenodd" clip-rule="evenodd" fill="#EDE2C3" d="M799.625,1375.192c-0.722-3.789-3.067-46.771,4.336-55.076&#10;&#9;&#9;c7.224-8.306,18.602,11.378,17.699,42.073C820.938,1392.71,801.255,1391.447,799.625,1375.192L799.625,1375.192z"/>
	<path fill-rule="evenodd" clip-rule="evenodd" fill="#FAF7E4" d="M625.005,1110.826c23.118-74.939,54.354-88.483,134.532-80.72&#10;&#9;&#9;c32.144,3.067,39.548,13.544,55.441,42.622c20.767,37.916,34.31,98.05,38.098,166.488c5.96,106.904-67.354,124.782-111.954,124.782&#10;&#9;&#9;c-44.605,0-117.38,3.068-132.546-60.854C593.408,1239.217,625.005,1110.826,625.005,1110.826L625.005,1110.826z"/>
	<path fill-rule="evenodd" clip-rule="evenodd" fill="#E57425" d="M680.268,1034.984c19.497-7.584,44.96-8.305,79.27-4.878&#10;&#9;&#9;c32.144,3.067,39.548,13.544,55.441,42.622c7.944,14.619,14.986,32.318,20.586,52.543&#10;&#9;&#9;C739.312,1159.942,680.268,1035.346,680.268,1034.984L680.268,1034.984z"/>
	<path fill-rule="evenodd" clip-rule="evenodd" fill="#FFFFFF" d="M708.256,1093.133c-4.156,33.581-50.565,12.274-32.325-11.559&#10;&#9;&#9;C685.5,1068.934,706.807,1073.089,708.256,1093.133L708.256,1093.133z"/>
	<path fill-rule="evenodd" clip-rule="evenodd" fill="#48372C" d="M701.755,1094.215c-2.893,23.473-34.851,8.667-22.396-7.95&#10;&#9;&#9;C686.041,1077.598,700.853,1080.492,701.755,1094.215L701.755,1094.215z"/>
	<path fill-rule="evenodd" clip-rule="evenodd" fill="#FFFFFF" d="M705.544,1089.338c-1.263,10.477-15.708,3.795-10.109-3.614&#10;&#9;&#9;C698.501,1081.749,705.183,1083.018,705.544,1089.338L705.544,1089.338z"/>
	<path fill-rule="evenodd" clip-rule="evenodd" fill="#FFFFFF" d="M792.943,1094.937c-3.969,33.583-50.558,12.281-32.324-11.559&#10;&#9;&#9;C770.193,1070.737,791.5,1074.893,792.943,1094.937L792.943,1094.937z"/>
	<path fill-rule="evenodd" clip-rule="evenodd" fill="#48372C" d="M786.443,1096.2c-2.706,23.292-34.852,8.484-22.391-8.132&#10;&#9;&#9;C770.734,1079.41,785.54,1082.296,786.443,1096.2L786.443,1096.2z"/>
	<path fill-rule="evenodd" clip-rule="evenodd" fill="#FFFFFF" d="M790.237,1091.143c-1.263,10.476-15.708,3.794-10.115-3.608&#10;&#9;&#9;C783.195,1083.559,789.876,1084.822,790.237,1091.143L790.237,1091.143z"/>
	<path fill-rule="evenodd" clip-rule="evenodd" fill="#48372C" d="M716.742,1115.342c3.615-1.442,8.666-2.164,14.807-1.804&#10;&#9;&#9;c15.895,0.535,19.863,5.052,18.06,13.003c-1.984,7.938-21.849,10.108-29.973,6.854&#10;&#9;&#9;C705.544,1127.797,703.56,1120.393,716.742,1115.342L716.742,1115.342z"/>
	<path fill-rule="evenodd" clip-rule="evenodd" fill="#EDE2C3" d="M708.797,1167.886c0,0-49.122,6.507-67.897,55.081&#10;&#9;&#9;c-27.989,72.414,11.733,121.711,91.189,118.818c36.661-1.264,81.981-15.348,89.751-46.404&#10;&#9;&#9;C832.13,1253.302,832.311,1154.523,708.797,1167.886L708.797,1167.886z"/>
	<path fill-rule="evenodd" clip-rule="evenodd" fill="#FACBD0" d="M660.043,1134.305c13.543,0,24.374-3.795,24.374-8.492&#10;&#9;&#9;s-10.831-8.665-24.374-8.665c-13.363,0-24.381,3.968-24.381,8.665S646.68,1134.305,660.043,1134.305L660.043,1134.305z"/>
	<path fill-rule="evenodd" clip-rule="evenodd" fill="#FACBD0" d="M803.239,1135.562c13.363,0,24.381-3.789,24.381-8.487&#10;&#9;&#9;c0-4.876-11.018-8.665-24.381-8.665c-13.542,0-24.38,3.789-24.38,8.665C778.859,1131.772,789.697,1135.562,803.239,1135.562&#10;&#9;&#9;L803.239,1135.562z"/>
</g>
<g>
	<path fill-rule="evenodd" clip-rule="evenodd" fill="#664E3D" d="M1016.319,1061.344c-1.624-1.805-14.626-30.877-3.97-42.067&#10;&#9;&#9;c10.651-11.199,39.729,19.856,39.729,19.856L1016.319,1061.344z"/>
	<path fill-rule="evenodd" clip-rule="evenodd" fill="#48372C" d="M1023.001,1052.136c0,0-9.027-20.218-3.248-23.833&#10;&#9;&#9;c5.6-3.795,20.766,12.274,20.766,12.274L1023.001,1052.136z"/>
	<path fill-rule="evenodd" clip-rule="evenodd" fill="#664E3D" d="M1160.966,1059.899c1.804-1.804,14.625-31.056,3.976-42.073&#10;&#9;&#9;c-10.657-11.191-39.548,19.684-39.548,19.684L1160.966,1059.899z"/>
	<path fill-rule="evenodd" clip-rule="evenodd" fill="#48372C" d="M1154.465,1050.512c0,0,8.846-20.045,3.248-23.658&#10;&#9;&#9;c-5.774-3.789-20.766,12.279-20.766,12.279L1154.465,1050.512z"/>
	<path fill-rule="evenodd" clip-rule="evenodd" fill="#48372C" d="M1182.633,1311.45c0,0,109.61,15.889,167.037-32.687&#10;&#9;&#9;c57.422-48.579,60.494-130.375,43.156-173.897c-17.332-43.698-43.697-57.061-65.004-42.073&#10;&#9;&#9;c-21.313,14.805-38.646,78.192-49.482,140.672c-11.012,62.297-36.655,90.105-109.069,94.982&#10;&#9;&#9;C1097.037,1303.506,1182.633,1311.45,1182.633,1311.45L1182.633,1311.45z"/>
	<path fill-rule="evenodd" clip-rule="evenodd" fill="#AB8766" d="M1242.045,1313.435c12.1-0.721,25.283-1.984,38.646-4.69&#10;&#9;&#9;c3.247-24.561-11.92-40.089-23.299-48.219c-5.238,7.408-11.553,13.723-19.142,18.781&#10;&#9;&#9;C1243.488,1289.596,1243.309,1303.32,1242.045,1313.435L1242.045,1313.435z M1325.65,1294.293&#10;&#9;&#9;c8.672-4.336,16.797-9.388,24.02-15.529c4.518-3.975,8.847-7.943,12.642-12.279c-21.313-41.352-58.329-62.117-82.528-71.686&#10;&#9;&#9;c-0.541,2.887-0.903,5.772-1.443,8.666c-2.346,12.82-5.051,24.02-8.848,33.948&#10;&#9;&#9;C1314.459,1253.662,1325.65,1294.111,1325.65,1294.293L1325.65,1294.293z M1393.007,1213.934&#10;&#9;&#9;c5.599-16.609,8.485-33.407,8.852-49.655c-30.88-45.328-72.773-57.608-98.598-60.494c-5.96,15.888-11.378,34.851-15.888,55.075&#10;&#9;&#9;C1339.735,1164.097,1372.602,1186.848,1393.007,1213.934L1393.007,1213.934z"/>
	<path fill-rule="evenodd" clip-rule="evenodd" fill="#664E3D" d="M988.149,1159.942c-3.607,0.728-44.419,14.812-49.296,24.741&#10;&#9;&#9;c-4.878,9.754,17.519,12.82,45.688,0.54C1012.53,1172.943,1003.864,1155.431,988.149,1159.942L988.149,1159.942z"/>
	<path fill-rule="evenodd" clip-rule="evenodd" fill="#664E3D" d="M1200.514,1159.942c3.788,0.728,44.419,14.812,49.295,24.741&#10;&#9;&#9;c5.059,9.754-17.518,12.82-45.507,0.54C1176.133,1172.943,1184.799,1155.431,1200.514,1159.942L1200.514,1159.942z"/>
	<path fill-rule="evenodd" clip-rule="evenodd" fill="#664E3D" d="M1022.278,1371.764c0.723-3.613,3.074-46.771-4.329-55.081&#10;&#9;&#9;c-7.224-8.299-18.602,11.558-17.699,42.079C1001.151,1389.457,1020.655,1388.014,1022.278,1371.764L1022.278,1371.764z"/>
	<path fill-rule="evenodd" clip-rule="evenodd" fill="#664E3D" d="M1155.186,1371.043c-0.721-3.796-3.072-46.771,4.336-55.082&#10;&#9;&#9;c7.224-8.305,18.596,11.378,17.693,42.079C1176.494,1388.555,1156.81,1387.292,1155.186,1371.043L1155.186,1371.043z"/>
	<path fill-rule="evenodd" clip-rule="evenodd" fill="#664E3D" d="M987.608,1114.62c21.127-74.938,52.009-88.489,132.366-80.899&#10;&#9;&#9;c32.139,3.248,39.908,13.725,56.699,42.795c21.668,37.918,36.842,98.052,42.615,166.496&#10;&#9;&#9;c8.852,106.903-63.922,124.776-108.528,124.776c-44.599,0-117.373,2.893-134.345-61.034&#10;&#9;&#9;C959.619,1243.012,987.608,1114.62,987.608,1114.62L987.608,1114.62z"/>
	<path fill-rule="evenodd" clip-rule="evenodd" fill="#AB8766" d="M1068.869,1068.571c0,0,16.796,14.987,16.256,31.604&#10;&#9;&#9;c-0.361,16.609-66.454,54.708-84.153,45.681c-17.699-9.207,21.307-64.644,38.646-75.3&#10;&#9;&#9;C1056.954,1059.899,1068.869,1068.571,1068.869,1068.571L1068.869,1068.571z"/>
	<path fill-rule="evenodd" clip-rule="evenodd" fill="#AB8766" d="M1114.736,1068.571c0,0-16.971,14.987-16.43,31.604&#10;&#9;&#9;c0.542,16.609,66.635,54.708,84.326,45.681c17.52-9.207-21.307-64.644-38.644-75.3&#10;&#9;&#9;C1126.656,1059.899,1114.736,1068.571,1114.736,1068.571L1114.736,1068.571z"/>
	<path fill-rule="evenodd" clip-rule="evenodd" fill="#FFFFFF" d="M1066.162,1099.086c-4.155,33.77-50.565,12.28-32.506-11.552&#10;&#9;&#9;C1043.225,1074.893,1064.719,1079.049,1066.162,1099.086L1066.162,1099.086z"/>
	<path fill-rule="evenodd" clip-rule="evenodd" fill="#48372C" d="M1059.661,1100.349c-2.892,23.299-35.031,8.487-22.39-7.944&#10;&#9;&#9;C1043.767,1083.559,1058.578,1086.452,1059.661,1100.349L1059.661,1100.349z"/>
	<path fill-rule="evenodd" clip-rule="evenodd" fill="#FFFFFF" d="M1063.45,1095.297c-1.263,10.471-15.708,3.97-10.109-3.613&#10;&#9;&#9;C1056.408,1087.708,1063.09,1089.158,1063.45,1095.297L1063.45,1095.297z"/>
	<path fill-rule="evenodd" clip-rule="evenodd" fill="#FFFFFF" d="M1150.85,1100.896c-4.148,33.769-50.559,12.281-32.505-11.559&#10;&#9;&#9;C1127.92,1076.697,1149.407,1080.853,1150.85,1100.896L1150.85,1100.896z"/>
	<path fill-rule="evenodd" clip-rule="evenodd" fill="#48372C" d="M1144.35,1102.16c-2.888,23.291-35.031,8.484-22.39-7.945&#10;&#9;&#9;C1128.642,1085.363,1143.447,1088.255,1144.35,1102.16L1144.35,1102.16z"/>
	<path fill-rule="evenodd" clip-rule="evenodd" fill="#FFFFFF" d="M1148.144,1097.103c-1.263,10.476-15.708,3.969-10.114-3.608&#10;&#9;&#9;C1141.102,1089.519,1147.783,1090.961,1148.144,1097.103L1148.144,1097.103z"/>
	<path fill-rule="evenodd" clip-rule="evenodd" fill="#FACBD0" d="M1023.548,1137.191c13.363,0,24.374-3.796,24.374-8.486&#10;&#9;&#9;c0-4.697-11.011-8.673-24.374-8.673c-13.549,0-24.381,3.976-24.381,8.673C999.167,1133.396,1009.999,1137.191,1023.548,1137.191&#10;&#9;&#9;L1023.548,1137.191z"/>
	<path fill-rule="evenodd" clip-rule="evenodd" fill="#FACBD0" d="M1153.201,1137.191c13.544,0,24.375-3.796,24.375-8.486&#10;&#9;&#9;c0-4.697-10.831-8.673-24.375-8.673c-13.363,0-24.381,3.976-24.381,8.673C1128.82,1133.396,1139.838,1137.191,1153.201,1137.191&#10;&#9;&#9;L1153.201,1137.191z"/>
	<path fill-rule="evenodd" clip-rule="evenodd" fill="#48372C" d="M1077.535,1122.926c3.614-1.264,8.672-2.171,14.812-1.811&#10;&#9;&#9;c15.89,0.547,19.865,5.238,18.054,13.003c-1.984,7.949-21.848,10.115-29.973,6.867&#10;&#9;&#9;C1066.343,1135.562,1064.358,1127.983,1077.535,1122.926L1077.535,1122.926z"/>
	<path fill-rule="evenodd" clip-rule="evenodd" fill="#E8DED6" d="M1075.369,1166.262c0,0-48.935,6.501-67.897,55.076&#10;&#9;&#9;c-27.988,72.232,11.74,121.709,91.195,118.823c36.655-1.443,81.982-15.528,89.747-46.41&#10;&#9;&#9;C1198.709,1251.678,1198.884,1152.898,1075.369,1166.262L1075.369,1166.262z"/>
</g>
<g>
	<path fill-rule="evenodd" clip-rule="evenodd" fill="#CA5928" d="M277.395,1309.466c0,0-57.247-17.519-65.552-50.926&#10;&#9;&#9;c-8.305-33.228,12.461-47.491-35.211-100.583c-47.853-53.091-19.143-66.273-19.143-66.273&#10;&#9;&#9;C81.106,1116.244,40.296,1348.646,277.395,1309.466L277.395,1309.466z"/>
	<path fill-rule="evenodd" clip-rule="evenodd" fill="#FAF7E4" d="M184.756,1167.352c-2.526-3.073-5.238-6.147-8.125-9.395&#10;&#9;&#9;c-47.853-53.091-19.143-66.273-19.143-66.273c-33.227,10.656-59.772,60.674-59.592,110.518c0.722,0.176,20.044,4.69,21.127-10.836&#10;&#9;&#9;c0.908-15.891,19.323-16.973,30.159-7.585c10.837,9.569,9.388-17.338,12.461-25.644&#10;&#9;&#9;C164.531,1149.652,184.756,1167.352,184.756,1167.352L184.756,1167.352z"/>
	<path fill-rule="evenodd" clip-rule="evenodd" fill="#EA6D31" d="M413.911,1057.916c1.624-1.805,14.625-31.063,3.975-42.074&#10;&#9;&#9;c-10.657-11.198-39.728,19.684-39.728,19.684L413.911,1057.916z"/>
	<path fill-rule="evenodd" clip-rule="evenodd" fill="#FAF7E4" d="M407.229,1048.527c0,0,9.027-20.044,3.253-23.658&#10;&#9;&#9;c-5.599-3.789-20.766,12.279-20.766,12.279L407.229,1048.527z"/>
	<path fill-rule="evenodd" clip-rule="evenodd" fill="#EA6D31" d="M269.27,1057.916c-1.81-1.805-14.625-31.063-3.975-42.074&#10;&#9;&#9;c10.657-11.198,39.728,19.684,39.728,19.684L269.27,1057.916z"/>
	<path fill-rule="evenodd" clip-rule="evenodd" fill="#FAF7E4" d="M275.771,1048.527c0,0-8.853-20.044-3.073-23.658&#10;&#9;&#9;c5.599-3.789,20.766,12.279,20.766,12.279L275.771,1048.527z"/>
	<path fill-rule="evenodd" clip-rule="evenodd" fill="#EA6D31" d="M236.404,1180.526c-3.614,0.723-44.425,14.807-49.296,24.741&#10;&#9;&#9;c-4.877,9.936,17.513,13.002,45.682,0.542C260.778,1193.529,252.112,1176.011,236.404,1180.526L236.404,1180.526z"/>
	<path fill-rule="evenodd" clip-rule="evenodd" fill="#EA6D31" d="M441.9,1180.526c3.614,0.723,44.245,14.807,49.302,24.741&#10;&#9;&#9;c4.871,9.936-17.699,13.002-45.688,0.542C417.525,1193.529,426.011,1176.011,441.9,1180.526L441.9,1180.526z"/>
	<path fill-rule="evenodd" clip-rule="evenodd" fill="#EA6D31" d="M263.852,1373.748c0.722-3.614,3.067-46.77-4.336-55.074&#10;&#9;&#9;c-7.223-8.312-18.595,11.558-17.693,42.072C242.544,1391.447,262.228,1390.004,263.852,1373.748L263.852,1373.748z"/>
	<path fill-rule="evenodd" clip-rule="evenodd" fill="#EA6D31" d="M410.483,1373.748c-0.722-3.614-2.893-46.77,4.33-55.074&#10;&#9;&#9;c7.223-8.312,18.601,11.558,17.699,42.072C431.791,1391.447,412.288,1390.004,410.483,1373.748L410.483,1373.748z"/>
	<path fill-rule="evenodd" clip-rule="evenodd" fill="#EA6D31" d="M235.863,1109.563c23.111-75.12,54.354-88.669,134.531-80.898&#10;&#9;&#9;c32.139,3.066,39.729,13.724,55.617,42.795c9.748,17.699,17.879,40.63,24.2,66.814c1.082,1.443,7.403,10.289,16.249,10.651&#10;&#9;&#9;c9.388,0.547,1.804,8.852-12.641,5.959c5.058,25.47,8.485,53.452,10.116,82.89c5.954,107.078-67.363,124.783-111.961,124.783&#10;&#9;&#9;c-44.605,0-117.374,3.066-132.547-60.854c-9.208-39.554-0.722-103.655,7.042-146.818l0,0c-14.807,3.073-22.75-5.412-13.183-5.959&#10;&#9;&#9;c9.754-0.536,16.436-10.833,16.436-10.833C233.151,1120.58,235.863,1109.563,235.863,1109.563L235.863,1109.563z"/>
	<path fill-rule="evenodd" clip-rule="evenodd" fill="#FAF7E4" d="M235.863,1109.563c8.306-26.906,17.693-46.049,29.973-58.869&#10;&#9;&#9;c0,0,69.708,10.836,61.757,63.38l12.28,8.673l15.527-8.313c0,0,0.722-74.752,60.495-60.307c3.073,4.878,6.32,10.65,10.116,17.332&#10;&#9;&#9;c9.748,17.699,17.879,40.63,24.2,66.814c1.082,1.443,7.403,10.289,16.249,10.651c9.388,0.547,1.804,8.852-12.641,5.959&#10;&#9;&#9;c0,0-7.223-0.535-11.378-3.969c-4.149-3.435-22.209,41.171-52.724,51.822c-30.521,10.657-68.445,7.95-100.583-3.97&#10;&#9;&#9;c-32.145-11.92-52.911-49.482-62.665-43.884l0,0c-14.807,3.073-22.75-5.412-13.183-5.959c9.754-0.536,16.436-10.833,16.436-10.833&#10;&#9;&#9;C233.151,1120.58,235.863,1109.563,235.863,1109.563L235.863,1109.563z"/>
	<path fill-rule="evenodd" clip-rule="evenodd" fill="#FFFFFF" d="M319.107,1091.684c-3.969,33.768-50.559,12.461-32.325-11.553&#10;&#9;&#9;C296.357,1067.664,317.844,1071.819,319.107,1091.684L319.107,1091.684z"/>
	<path fill-rule="evenodd" clip-rule="evenodd" fill="#48372C" d="M312.606,1092.945c-2.706,23.299-34.85,8.486-22.39-7.943&#10;&#9;&#9;C296.898,1076.155,311.705,1079.049,312.606,1092.945L312.606,1092.945z"/>
	<path fill-rule="evenodd" clip-rule="evenodd" fill="#FFFFFF" d="M316.582,1087.895c-1.443,10.65-15.895,3.97-10.115-3.615&#10;&#9;&#9;C309.359,1080.492,316.041,1081.749,316.582,1087.895L316.582,1087.895z"/>
	<path fill-rule="evenodd" clip-rule="evenodd" fill="#FFFFFF" d="M403.802,1093.494c-3.976,33.768-50.566,12.454-32.325-11.56&#10;&#9;&#9;C381.045,1069.475,402.533,1073.624,403.802,1093.494L403.802,1093.494z"/>
	<path fill-rule="evenodd" clip-rule="evenodd" fill="#48372C" d="M397.3,1094.75c-2.712,23.298-34.856,8.492-22.396-7.938&#10;&#9;&#9;C381.586,1078.141,396.398,1080.853,397.3,1094.75L397.3,1094.75z"/>
	<path fill-rule="evenodd" clip-rule="evenodd" fill="#FFFFFF" d="M401.27,1089.699c-1.263,10.649-15.889,3.968-10.109-3.608&#10;&#9;&#9;C394.047,1082.296,400.729,1083.559,401.27,1089.699L401.27,1089.699z"/>
	<path fill-rule="evenodd" clip-rule="evenodd" fill="#48372C" d="M327.593,1114.073c3.614-1.443,8.672-2.345,14.806-1.984&#10;&#9;&#9;c15.895,0.729,20.044,5.237,18.06,13.002c-1.804,7.944-21.848,10.11-29.793,6.862&#10;&#9;&#9;C316.401,1126.541,314.411,1119.131,327.593,1114.073L327.593,1114.073z"/>
	<path fill-rule="evenodd" clip-rule="evenodd" fill="#F38047" d="M275.591,1226.396c0,0-6.321,12.461-2.171,24.2&#10;&#9;&#9;c3.975,11.738,11.919-4.879,10.296-17.339C282.092,1220.615,276.854,1221.164,275.591,1226.396L275.591,1226.396z"/>
	<path fill-rule="evenodd" clip-rule="evenodd" fill="#F38047" d="M300.326,1226.396c0,0-6.321,12.461-2.165,24.2&#10;&#9;&#9;c3.976,11.738,11.919-4.879,10.296-17.339C306.827,1220.615,301.588,1221.164,300.326,1226.396L300.326,1226.396z"/>
	<path fill-rule="evenodd" clip-rule="evenodd" fill="#F38047" d="M325.248,1226.396c0,0-6.501,12.461-2.345,24.2&#10;&#9;&#9;c3.969,11.738,11.913-4.879,10.29-17.339C331.568,1220.615,326.33,1221.164,325.248,1226.396L325.248,1226.396z"/>
	<path fill-rule="evenodd" clip-rule="evenodd" fill="#F38047" d="M349.989,1226.396c0,0-6.321,12.461-2.352,24.2&#10;&#9;&#9;c3.976,11.738,11.919-4.879,10.296-17.339C356.31,1220.615,351.071,1221.164,349.989,1226.396L349.989,1226.396z"/>
	<path fill-rule="evenodd" clip-rule="evenodd" fill="#F38047" d="M374.724,1226.396c0,0-6.321,12.461-2.345,24.2&#10;&#9;&#9;c4.156,11.738,11.919-4.879,10.296-17.339C381.045,1220.615,375.994,1221.164,374.724,1226.396L374.724,1226.396z"/>
	<path fill-rule="evenodd" clip-rule="evenodd" fill="#F38047" d="M399.465,1226.396c0,0-6.321,12.461-2.345,24.2&#10;&#9;&#9;c4.15,11.738,11.913-4.879,10.29-17.339C405.786,1220.615,400.729,1221.164,399.465,1226.396L399.465,1226.396z"/>
	<path fill-rule="evenodd" clip-rule="evenodd" fill="#F38047" d="M275.591,1267.567c0,0-6.321,12.46-2.171,24.199&#10;&#9;&#9;c3.975,11.739,11.919-4.697,10.296-17.339C282.092,1261.787,276.854,1262.334,275.591,1267.567L275.591,1267.567z"/>
	<path fill-rule="evenodd" clip-rule="evenodd" fill="#F38047" d="M300.326,1267.567c0,0-6.321,12.46-2.165,24.199&#10;&#9;&#9;c3.976,11.739,11.919-4.697,10.296-17.339C306.827,1261.787,301.588,1262.334,300.326,1267.567L300.326,1267.567z"/>
	<path fill-rule="evenodd" clip-rule="evenodd" fill="#F38047" d="M325.248,1267.567c0,0-6.501,12.46-2.345,24.199&#10;&#9;&#9;c3.969,11.739,11.913-4.697,10.29-17.339C331.568,1261.787,326.33,1262.334,325.248,1267.567L325.248,1267.567z"/>
	<path fill-rule="evenodd" clip-rule="evenodd" fill="#F38047" d="M349.989,1267.567c0,0-6.321,12.46-2.352,24.199&#10;&#9;&#9;c3.976,11.739,11.919-4.697,10.296-17.339C356.31,1261.787,351.071,1262.334,349.989,1267.567L349.989,1267.567z"/>
	<path fill-rule="evenodd" clip-rule="evenodd" fill="#F38047" d="M374.724,1267.567c0,0-6.321,12.46-2.345,24.199&#10;&#9;&#9;c4.156,11.739,11.919-4.697,10.296-17.339C381.045,1261.787,375.994,1262.334,374.724,1267.567L374.724,1267.567z"/>
	<path fill-rule="evenodd" clip-rule="evenodd" fill="#F38047" d="M399.465,1267.567c0,0-6.321,12.46-2.345,24.199&#10;&#9;&#9;c4.15,11.739,11.913-4.697,10.29-17.339C405.786,1261.787,400.729,1262.334,399.465,1267.567L399.465,1267.567z"/>
	<path fill-rule="evenodd" clip-rule="evenodd" fill="#FACBD0" d="M270.894,1133.035c13.543,0,24.374-3.97,24.374-8.666&#10;&#9;&#9;c0-4.697-10.831-8.667-24.374-8.667c-13.363,0-24.38,3.97-24.38,8.667C246.514,1129.065,257.531,1133.035,270.894,1133.035&#10;&#9;&#9;L270.894,1133.035z"/>
	<path fill-rule="evenodd" clip-rule="evenodd" fill="#FACBD0" d="M414.091,1134.305c13.543,0,24.38-3.976,24.38-8.673&#10;&#9;&#9;c0-4.69-10.837-8.666-24.38-8.666c-13.363,0-24.374,3.976-24.374,8.666C389.717,1130.329,400.729,1134.305,414.091,1134.305&#10;&#9;&#9;L414.091,1134.305z"/>
	<path fill-rule="evenodd" clip-rule="evenodd" fill="#F38047" d="M275.591,1309.279c0,0-6.321,12.461-2.171,24.2&#10;&#9;&#9;c3.975,11.559,11.919-4.878,10.296-17.519C282.092,1303.506,276.854,1304.041,275.591,1309.279L275.591,1309.279z"/>
	<path fill-rule="evenodd" clip-rule="evenodd" fill="#F38047" d="M300.326,1309.279c0,0-6.321,12.461-2.165,24.2&#10;&#9;&#9;c3.976,11.559,11.919-4.878,10.296-17.519C306.827,1303.506,301.588,1304.041,300.326,1309.279L300.326,1309.279z"/>
	<path fill-rule="evenodd" clip-rule="evenodd" fill="#F38047" d="M325.248,1309.279c0,0-6.501,12.461-2.345,24.2&#10;&#9;&#9;c3.969,11.559,11.913-4.878,10.29-17.519C331.568,1303.506,326.33,1304.041,325.248,1309.279L325.248,1309.279z"/>
	<path fill-rule="evenodd" clip-rule="evenodd" fill="#F38047" d="M349.989,1309.279c0,0-6.321,12.461-2.352,24.2&#10;&#9;&#9;c3.976,11.559,11.919-4.878,10.296-17.519C356.31,1303.506,351.071,1304.041,349.989,1309.279L349.989,1309.279z"/>
	<path fill-rule="evenodd" clip-rule="evenodd" fill="#F38047" d="M374.724,1309.279c0,0-6.321,12.461-2.345,24.2&#10;&#9;&#9;c4.156,11.559,11.919-4.878,10.296-17.519C381.045,1303.506,375.994,1304.041,374.724,1309.279L374.724,1309.279z"/>
	<path fill-rule="evenodd" clip-rule="evenodd" fill="#F38047" d="M399.465,1309.279c0,0-6.321,12.461-2.345,24.2&#10;&#9;&#9;c4.15,11.559,11.913-4.878,10.29-17.519C405.786,1303.506,400.729,1304.041,399.465,1309.279L399.465,1309.279z"/>
</g>
</svg>