<?xml version="1.0" encoding="utf-8"?>
<!-- Generator: Adobe Illustrator 21.0.0, SVG Export Plug-In . SVG Version: 6.00 Build 0)  -->


<svg version="1.1" id="Layer_1" xmlns="http://www.w3.org/2000/svg" xmlns:xlink="http://www.w3.org/1999/xlink" x="0px" y="0px"
	 width="1400px" height="980px" viewBox="0 0 1400 980" enable-background="new 0 0 1400 980" xml:space="preserve">
<g>
	<rect fill="#FFFFFF" width="1400" height="980"/>
	<g>
		<g>
			<polygon fill="#F6B26A" points="60.3,358.6 75.6,303 124,282 124,358.6 			"/>
			<polygon fill="#C57251" points="135.3,217.4 124,282 124,358.6 177.3,358.6 161.1,202.1 			"/>
			<polygon fill="#F6B26A" points="203.9,156.9 167.6,172.3 161.1,202.1 177.3,358.6 203.9,358.6 			"/>
			<polygon fill="#C57251" points="341,358.6 315.2,76.3 245,45.6 232.1,135.1 203.9,156.9 203.9,358.6 			"/>
			<polygon fill="#F6B26A" points="399.9,358.6 373.3,198.1 353.1,138.4 319,118.2 341,358.6 			"/>
			<polygon fill="#C57251" points="457.6,358.6 432.2,232.8 393.5,217 377.3,222.2 399.9,358.6 			"/>
			<polygon fill="#F6B26A" points="531.4,358.6 470.9,266.7 436.2,252.8 457.6,358.6 			"/>
			<rect x="231.9" y="287.8" fill="#6B3C1B" width="13.3" height="70.8"/>
			<rect x="300.9" y="287.8" fill="#6B3C1B" width="13.3" height="70.8"/>
			<rect x="245.2" y="287.8" fill="#824A26" width="55.7" height="12.3"/>
			<rect x="245.2" y="300.1" fill="#3F160D" width="55.7" height="58.5"/>
		</g>
	
	</g>
</g>
</svg>
