<?xml version="1.0" encoding="utf-8"?>
<svg id="master-artboard" viewBox="0 0 1096 780" version="1.1" xmlns="http://www.w3.org/2000/svg" x="0px" y="0px" style="enable-background:new 0 0 1096 780;" width="1096px" height="780px"><rect id="ee-background" x="0" y="0" width="1096" height="780" style="fill: white; fill-opacity: 0; pointer-events: none;"/>

<path d="M 0 0 H 1096 V 780 H 0 V 0 Z" class="st0" style="opacity: 0.25; fill: rgb(41, 171, 226);" transform="matrix(1, 0, 0, 1, 0, 0)"/><g transform="matrix(1, 0, 0, 1, 0, 0)">
			<g>
				<path class="st1" d="M527.5,665.5l-2.8-2.7l3.2-31.4c0.8-7.5-0.3-13.7-2.5-13.8l-0.1,0c-2.1-0.2-4.5,5.8-5.2,13.2l-3.3,32.4&#10;&#9;&#9;&#9;&#9;&#9;l-2.3,1.3c-7.4,4.3-12.4,8.9-11.2,10.4l0.1,0.1c1.1,1.3,6.4-0.3,12.6-3.5c-0.3,6.2,0.8,10.9,2.7,11l0.1,0&#10;&#9;&#9;&#9;&#9;&#9;c1.9,0.1,4-4.6,4.9-10.9c5.2,4.5,10.2,7.3,11.6,6.2l0.1-0.1C537,676.7,533.5,671.2,527.5,665.5z" style="fill: rgb(255, 147, 30);"/>
				<path class="st1" d="M587.6,664.3l-2.3-1.4l-2.7-32.2c-0.6-7.5-2.9-13.2-5-13.1l-0.1,0c-2.1,0.1-3.4,6-2.7,13.5l2.6,31.1&#10;&#9;&#9;&#9;&#9;&#9;l-2.9,2.6c-6.1,5.5-9.7,11-8.1,12.2l0.1,0.1c1.4,1.1,6.4-1.6,11.7-6c0.8,6.4,2.8,11.1,4.8,11l0.1,0c1.9-0.1,3-4.8,2.9-10.9&#10;&#9;&#9;&#9;&#9;&#9;c6.2,3.3,11.5,5,12.6,3.7l0.1-0.1C599.9,673.4,595,668.7,587.6,664.3z" style="fill: rgb(255, 147, 30);"/>
			</g>
			<path class="st2" d="M453.8,420.9c5.8-4.9,32.2,6.8,32.2,6.8s30.2-15.6,65.3-15.6c35.1,0,59.4,15.6,59.4,15.6s30.2-14.6,36.1-9.7&#10;&#9;&#9;&#9;&#9;c5.8,4.9-5.9,45.2-5.8,60.4c0.1,49.2,37,171.5-94.5,172.4c-131.5,1-91.4-123.9-89.6-172.4C457.3,464,448,425.7,453.8,420.9z" style="fill: rgb(249, 167, 4);"/>
			<path class="st3" d="M640.9,478.3c0-0.4,0-0.8,0-1.2c-8-16.2-24.7-27.4-44.1-27.4c-22.9,0-42.1,15.6-47.5,36.8&#10;&#9;&#9;&#9;&#9;c-5.5-21.2-24.7-36.8-47.5-36.8c-20.2,0-37.5,12.2-45.1,29.6c-0.4,8-1.7,18-3.1,29.1c4.5,22.5,24.3,39.5,48.2,39.5&#10;&#9;&#9;&#9;&#9;c22.9,0,42.1-15.6,47.5-36.8c5.5,21.2,24.7,36.8,47.5,36.8c21.9,0,40.4-14.3,46.8-34.1C642.3,500.2,640.9,487.9,640.9,478.3z" style="fill: rgb(252, 210, 172);"/>
			<path class="st3" d="M550.8,555.3c-41.7,0-75.5,32.9-75.5,73.6c0,0.3,0,0.7,0,1c14.7,13,37.2,21.2,71.1,20.9&#10;&#9;&#9;&#9;&#9;c40.4-0.3,64.9-12.1,79.5-29.6C621.9,584.1,589.8,555.3,550.8,555.3z" style="fill: rgb(252, 210, 172);"/>
			<path class="st4" d="M561,515.7c-8.7-10.2-22.5-3.8-23.4,0c-0.9,3.8,12.7,23,12.7,23S560.9,519.5,561,515.7z" style="fill: rgb(249, 149, 37);"/>
			<path d="M499.4,512.4c-14.4,0-26.3-10.9-27.9-24.9c-0.1,1-0.2,2.1-0.2,3.1c0,15.5,12.6,28.1,28.1,28.1&#10;&#9;&#9;&#9;&#9;c15.5,0,28.1-12.6,28.1-28.1c0-1.1-0.1-2.1-0.2-3.1C525.7,501.4,513.8,512.4,499.4,512.4z"/>
			<path d="M596.8,512.4c-14.4,0-26.3-10.9-27.9-24.9c-0.1,1-0.2,2.1-0.2,3.1c0,15.5,12.6,28.1,28.1,28.1&#10;&#9;&#9;&#9;&#9;c15.5,0,28.1-12.6,28.1-28.1c0-1.1-0.1-2.1-0.2-3.1C623.1,501.4,611.2,512.4,596.8,512.4z"/>
			<g>
				<path class="st5" d="M619.3,579.3c5.4-22.5,13.4-32.2,19.8-35.9c11.7-6.1,24.8,23.8,30.1,42.4c6,21,6.1,39.4,0.3,41.1&#10;&#9;&#9;&#9;&#9;&#9;c-4.2,1.3-10.3-6.5-15.7-18.8c-2.1,13.6-6,22.6-10.5,21.9c-4.2-0.6-7.8-9.9-9.6-23.1c-4.8,12.2-10.3,19.6-14.2,17.7&#10;&#9;&#9;&#9;&#9;&#9;C614.1,622.1,613.9,601.8,619.3,579.3z" style="fill: rgb(239, 137, 53);"/>
				<path class="st5" d="M479.9,580.6c-4.6-22.6-12.3-32.7-18.6-36.6c-11.4-6.5-25.6,22.9-31.5,41.4c-6.7,20.7-7.5,39.1-1.7,41.1&#10;&#9;&#9;&#9;&#9;&#9;c4.1,1.4,10.5-6.1,16.3-18.2c1.6,13.7,5.3,22.8,9.7,22.3c4.3-0.5,8.1-9.6,10.3-22.7c4.4,12.4,9.7,19.9,13.6,18.2&#10;&#9;&#9;&#9;&#9;&#9;C483.7,623.6,484.5,603.3,479.9,580.6z" style="fill: rgb(239, 137, 53);"/>
			</g>
			<g>
				<g>
					<g>
						<path class="st6" d="M549.4,598.6c0,0-0.1,0-0.1,0c-5.8,0-10.2-3.6-11.4-9.2c-0.2-1.1,0.3-2.1,1.2-2.4&#10;&#9;&#9;&#9;&#9;&#9;&#9;&#9;c0.9-0.3,1.8,0.5,2.1,1.5c0.9,4.6,4.9,6.2,8.1,6.3c3.6,0,7.8-1.9,8.8-6.3c0.2-1.1,1.2-1.7,2.1-1.5c0.9,0.3,1.5,1.2,1.2,2.3&#10;&#9;&#9;&#9;&#9;&#9;&#9;&#9;C560,595.9,554.4,598.6,549.4,598.6z" style="fill: rgb(233, 127, 25);"/>
					</g>
					<g>
						<path class="st6" d="M513.2,598.6c0,0-0.1,0-0.1,0c-5.8,0-10.2-3.6-11.4-9.2c-0.2-1.1,0.3-2.1,1.2-2.4&#10;&#9;&#9;&#9;&#9;&#9;&#9;&#9;c0.9-0.3,1.8,0.5,2.1,1.5c0.9,4.6,4.9,6.2,8.1,6.3c3.6,0,7.8-1.9,8.8-6.3c0.2-1.1,1.2-1.7,2.1-1.5c0.9,0.3,1.5,1.2,1.2,2.3&#10;&#9;&#9;&#9;&#9;&#9;&#9;&#9;C523.7,595.9,518.2,598.6,513.2,598.6z" style="fill: rgb(233, 127, 25);"/>
					</g>
					<g>
						<path class="st6" d="M585.6,598.6c0,0-0.1,0-0.1,0c-5.8,0-10.2-3.6-11.4-9.2c-0.2-1.1,0.3-2.1,1.2-2.4&#10;&#9;&#9;&#9;&#9;&#9;&#9;&#9;c0.9-0.3,1.8,0.5,2.1,1.5c0.9,4.6,4.9,6.2,8.1,6.3c3.6,0,7.8-1.9,8.8-6.3c0.2-1.1,1.2-1.7,2.1-1.5c0.9,0.3,1.5,1.2,1.2,2.3&#10;&#9;&#9;&#9;&#9;&#9;&#9;&#9;C596.2,595.9,590.6,598.6,585.6,598.6z" style="fill: rgb(233, 127, 25);"/>
					</g>
				</g>
				<g>
					<g>
						<path class="st6" d="M567,627.6c0,0-0.1,0-0.1,0c-5.8,0-10.2-3.8-11.4-9.4c-0.2-1.1,0.3-2.2,1.2-2.5c0.9-0.3,1.8,0.4,2.1,1.5&#10;&#9;&#9;&#9;&#9;&#9;&#9;&#9;c0.9,4.6,4.9,6.2,8.1,6.2c3.6,0,7.8-1.9,8.8-6.3c0.2-1.1,1.2-1.7,2.1-1.5c0.9,0.3,1.5,1.5,1.2,2.5&#10;&#9;&#9;&#9;&#9;&#9;&#9;&#9;C577.5,624.6,571.9,627.6,567,627.6z" style="fill: rgb(233, 127, 25);"/>
					</g>
					<g>
						<path class="st6" d="M531.9,627.6c0,0-0.1,0-0.1,0c-5.8,0-10.2-3.8-11.4-9.4c-0.2-1.1,0.3-2.2,1.2-2.5&#10;&#9;&#9;&#9;&#9;&#9;&#9;&#9;c0.9-0.3,1.8,0.4,2.1,1.5c0.9,4.6,4.9,6.2,8.1,6.2c3.6,0,7.8-1.9,8.8-6.3c0.2-1.1,1.2-1.7,2.1-1.5c0.9,0.3,1.5,1.5,1.2,2.5&#10;&#9;&#9;&#9;&#9;&#9;&#9;&#9;C542.4,624.6,536.8,627.6,531.9,627.6z" style="fill: rgb(233, 127, 25);"/>
					</g>
				</g>
			</g>
		</g><path class="st1" d="M862,665.5l-2.8-2.7l3.2-31.4c0.8-7.5-0.3-13.7-2.5-13.8l-0.1,0c-2.1-0.2-4.5,5.8-5.2,13.2l-3.3,32.4&#10;&#9;&#9;&#9;&#9;l-2.3,1.3c-7.4,4.3-12.4,8.9-11.2,10.4l0.1,0.1c1.1,1.3,6.4-0.3,12.6-3.5c-0.3,6.2,0.8,10.9,2.7,11l0.1,0c1.9,0.1,4-4.6,4.9-10.9&#10;&#9;&#9;&#9;&#9;c5.2,4.5,10.2,7.3,11.6,6.2l0.1-0.1C871.5,676.7,868,671.2,862,665.5z" style="fill: rgb(255, 147, 30);" transform="matrix(1, 0, 0, 1, 0, 0)"/><path class="st1" d="M922.1,664.3l-2.3-1.4l-2.7-32.2c-0.6-7.5-2.9-13.2-5-13.1l-0.1,0c-2.1,0.1-3.4,6-2.7,13.5l2.6,31.1&#10;&#9;&#9;&#9;&#9;l-2.9,2.6c-6.1,5.5-9.7,11-8.1,12.2l0.1,0.1c1.4,1.1,6.4-1.6,11.7-6c0.8,6.4,2.8,11.1,4.8,11l0.1,0c1.9-0.1,3-4.8,2.9-10.9&#10;&#9;&#9;&#9;&#9;c6.2,3.3,11.5,5,12.6,3.7l0.1-0.1C934.4,673.4,929.5,668.7,922.1,664.3z" style="fill: rgb(255, 147, 30);" transform="matrix(1, 0, 0, 1, 0, 0)"/><path class="st7" d="M980,420.2c-5.8-4.9-32.2,6.8-32.2,6.8s-30.2-15.6-65.3-15.6c-35.1,0-59.4,15.6-59.4,15.6s-30.2-14.6-36-9.7&#10;&#9;&#9;&#9;&#9;c-5.8,4.9,5.9,45.2,5.8,60.4c-0.1,49.2-37,171.5,94.5,172.4c131.5,1,91.4-123.9,89.6-172.4C976.5,463.3,985.8,425.1,980,420.2z" style="fill: rgb(47, 174, 164);" transform="matrix(1, 0, 0, 1, 0, 0)"/><path class="st8" d="M792.9,477.7c0-0.4,0-0.8,0-1.2c8-16.2,24.7-27.4,44.1-27.4c22.9,0,42.1,15.6,47.5,36.8&#10;&#9;&#9;&#9;&#9;c5.5-21.2,24.7-36.8,47.5-36.8c20.2,0,37.5,12.2,45.1,29.6c0.4,8,1.7,18,3.1,29.1c-4.5,22.5-24.3,39.5-48.2,39.5&#10;&#9;&#9;&#9;&#9;c-22.9,0-42.1-15.6-47.5-36.8c-5.5,21.2-24.7,36.8-47.5,36.8c-21.9,0-40.4-14.3-46.8-34.1C791.5,499.5,792.9,487.2,792.9,477.7z" style="fill: rgb(48, 146, 146);" transform="matrix(1, 0, 0, 1, 0, 0)"/><path class="st8" d="M883,554.6c41.7,0,75.5,32.9,75.5,73.6c0,0.3,0,0.7,0,1c-14.7,13-37.2,21.2-71.1,20.9&#10;&#9;&#9;&#9;&#9;c-40.4-0.3-64.9-12.1-79.5-29.6C811.9,583.5,844,554.6,883,554.6z" style="fill: rgb(48, 146, 146);" transform="matrix(1, 0, 0, 1, 0, 0)"/><path d="M 970.199974 492.299988 A 35.099998 35.099998 0 0 1 935.099976 527.399986 A 35.099998 35.099998 0 0 1 899.999977 492.299988 A 35.099998 35.099998 0 0 1 935.099976 457.199989 A 35.099998 35.099998 0 0 1 970.199974 492.299988 Z" class="st9" style="fill: rgb(255, 255, 255);" transform="matrix(1, 0, 0, 1, 0, 0)"/><path d="M906.1,494.2c0,10.7,8.6,19.3,19.3,19.3c10.7,0,19.3-8.6,19.3-19.3c0-10.7-8.6-19.3-19.3-19.3&#10;&#9;&#9;&#9;&#9;C914.7,474.9,906.1,483.6,906.1,494.2z" transform="matrix(1, 0, 0, 1, 0, 0)"/><path d="M 939.599976 487.399994 A 3.5 3.5 0 0 1 936.099976 490.899994 A 3.5 3.5 0 0 1 932.599976 487.399994 A 3.5 3.5 0 0 1 936.099976 483.899994 A 3.5 3.5 0 0 1 939.599976 487.399994 Z" class="st9" style="fill: rgb(255, 255, 255);" transform="matrix(1, 0, 0, 1, 0, 0)"/><path d="M 868.899986 492.299988 A 35.099998 35.099998 0 0 1 833.799988 527.399986 A 35.099998 35.099998 0 0 1 798.699989 492.299988 A 35.099998 35.099998 0 0 1 833.799988 457.199989 A 35.099998 35.099998 0 0 1 868.899986 492.299988 Z" class="st9" style="fill: rgb(255, 255, 255);" transform="matrix(1, 0, 0, 1, 0, 0)"/><path d="M804.8,494.2c0,10.7,8.6,19.3,19.3,19.3s19.3-8.6,19.3-19.3c0-10.7-8.6-19.3-19.3-19.3S804.8,483.6,804.8,494.2z" transform="matrix(1, 0, 0, 1, 0, 0)"/><path d="M 838.299988 487.399994 A 3.5 3.5 0 0 1 834.799988 490.899994 A 3.5 3.5 0 0 1 831.299988 487.399994 A 3.5 3.5 0 0 1 834.799988 483.899994 A 3.5 3.5 0 0 1 838.299988 487.399994 Z" class="st9" style="fill: rgb(255, 255, 255);" transform="matrix(1, 0, 0, 1, 0, 0)"/><path class="st4" d="M872.8,515c8.7-10.2,22.5-3.8,23.4,0c0.9,3.8-12.7,23-12.7,23S872.8,518.9,872.8,515z" style="fill: rgb(249, 149, 37);" transform="matrix(1, 0, 0, 1, 0, 0)"/><path class="st10" d="M958.3,579.1c5.4-22.5,13.4-32.2,19.8-35.9c11.7-6.1,24.8,23.8,30.1,42.4c6,21,6.1,39.4,0.3,41.1&#10;&#9;&#9;&#9;&#9;c-4.2,1.3-10.3-6.5-15.7-18.8c-2.1,13.6-6,22.6-10.5,21.9c-4.2-0.6-7.8-9.9-9.6-23.1c-4.8,12.2-10.3,19.6-14.2,17.7&#10;&#9;&#9;&#9;&#9;C953.1,621.9,953,601.6,958.3,579.1z" style="fill: rgb(0, 62, 95);" transform="matrix(1, 0, 0, 1, 0, 0)"/><path class="st10" d="M815.9,580.4c-4.6-22.6-12.3-32.7-18.6-36.6c-11.4-6.5-25.6,22.9-31.5,41.4c-6.7,20.7-7.5,39.1-1.7,41.1&#10;&#9;&#9;&#9;&#9;c4.1,1.4,10.5-6.1,16.3-18.2c1.6,13.7,5.3,22.8,9.7,22.3c4.3-0.5,8.1-9.6,10.3-22.7c4.4,12.4,9.7,19.9,13.6,18.2&#10;&#9;&#9;&#9;&#9;C819.7,623.4,820.5,603,815.9,580.4z" style="fill: rgb(0, 62, 95);" transform="matrix(1, 0, 0, 1, 0, 0)"/><g transform="matrix(1, 0, 0, 1, 0, 0)">
					<path class="st11" d="M884.9,598.6c0,0-0.1,0-0.1,0c-5.8,0-10.2-3.6-11.4-9.2c-0.2-1.1,0.3-2.1,1.2-2.4&#10;&#9;&#9;&#9;&#9;&#9;&#9;c0.9-0.3,1.8,0.5,2.1,1.5c0.9,4.6,4.9,6.2,8.1,6.3c3.6,0,7.8-1.9,8.8-6.3c0.2-1.1,1.2-1.7,2.1-1.5s1.5,1.2,1.2,2.3&#10;&#9;&#9;&#9;&#9;&#9;&#9;C895.5,595.9,889.9,598.6,884.9,598.6z" style="fill: rgb(182, 241, 231);"/>
				</g><path class="st11" d="M848.7,598.6c0,0-0.1,0-0.1,0c-5.8,0-10.2-3.6-11.4-9.2c-0.2-1.1,0.3-2.1,1.2-2.4&#10;&#9;&#9;&#9;&#9;&#9;&#9;c0.9-0.3,1.8,0.5,2.1,1.5c0.9,4.6,4.9,6.2,8.1,6.3c3.6,0,7.8-1.9,8.8-6.3c0.2-1.1,1.2-1.7,2.1-1.5c0.9,0.3,1.5,1.2,1.2,2.3&#10;&#9;&#9;&#9;&#9;&#9;&#9;C859.3,595.9,853.7,598.6,848.7,598.6z" style="fill: rgb(182, 241, 231);" transform="matrix(1, 0, 0, 1, 0, 0)"/><path class="st11" d="M921.2,598.6c0,0-0.1,0-0.1,0c-5.8,0-10.2-3.6-11.4-9.2c-0.2-1.1,0.3-2.1,1.2-2.4&#10;&#9;&#9;&#9;&#9;&#9;&#9;c0.9-0.3,1.8,0.5,2.1,1.5c0.9,4.6,4.9,6.2,8.1,6.3c3.6,0,7.8-1.9,8.8-6.3c0.2-1.1,1.2-1.7,2.1-1.5c0.9,0.3,1.5,1.2,1.2,2.3&#10;&#9;&#9;&#9;&#9;&#9;&#9;C931.7,595.9,926.1,598.6,921.2,598.6z" style="fill: rgb(182, 241, 231);" transform="matrix(1, 0, 0, 1, 0, 0)"/><g transform="matrix(1, 0, 0, 1, 0, 0)">
					<path class="st11" d="M902.5,627.6c0,0-0.1,0-0.1,0c-5.8,0-10.2-3.8-11.4-9.4c-0.2-1.1,0.3-2.2,1.2-2.5&#10;&#9;&#9;&#9;&#9;&#9;&#9;c0.9-0.3,1.8,0.4,2.1,1.5c0.9,4.6,4.9,6.2,8.1,6.2c3.6,0,7.8-1.9,8.8-6.3c0.2-1.1,1.2-1.7,2.1-1.5c0.9,0.3,1.5,1.5,1.2,2.5&#10;&#9;&#9;&#9;&#9;&#9;&#9;C913.1,624.6,907.5,627.6,902.5,627.6z" style="fill: rgb(182, 241, 231);"/>
				</g><path class="st11" d="M867.4,627.6c0,0-0.1,0-0.1,0c-5.8,0-10.2-3.8-11.4-9.4c-0.2-1.1,0.3-2.2,1.2-2.5&#10;&#9;&#9;&#9;&#9;&#9;&#9;c0.9-0.3,1.8,0.4,2.1,1.5c0.9,4.6,4.9,6.2,8.1,6.2c3.6,0,7.8-1.9,8.8-6.3c0.2-1.1,1.2-1.7,2.1-1.5c0.9,0.3,1.5,1.5,1.2,2.5&#10;&#9;&#9;&#9;&#9;&#9;&#9;C878,624.6,872.4,627.6,867.4,627.6z" style="fill: rgb(182, 241, 231);" transform="matrix(1, 0, 0, 1, 0, 0)"/><g transform="matrix(1, 0, 0, 1, 0, 0)">
				<path class="st1" d="M527.5,323.4l-2.8-2.7l3.2-31.4c0.8-7.5-0.3-13.7-2.5-13.8l-0.1,0c-2.1-0.2-4.5,5.8-5.2,13.2l-3.3,32.4&#10;&#9;&#9;&#9;&#9;&#9;l-2.3,1.3c-7.4,4.3-12.4,8.9-11.2,10.4l0.1,0.1c1.1,1.3,6.4-0.3,12.6-3.5c-0.3,6.2,0.8,10.9,2.7,11l0.1,0&#10;&#9;&#9;&#9;&#9;&#9;c1.9,0.1,4-4.6,4.9-10.9c5.2,4.5,10.2,7.3,11.6,6.2l0.1-0.1C537,334.5,533.5,329,527.5,323.4z" style="fill: rgb(255, 147, 30);"/>
				<path class="st1" d="M587.6,322.1l-2.3-1.4l-2.7-32.2c-0.6-7.5-2.9-13.2-5-13.1l-0.1,0c-2.1,0.1-3.4,6-2.7,13.5l2.6,31.1&#10;&#9;&#9;&#9;&#9;&#9;l-2.9,2.6c-6.1,5.5-9.7,11-8.1,12.2l0.1,0.1c1.4,1.1,6.4-1.6,11.7-6c0.8,6.4,2.8,11.1,4.8,11l0.1,0c1.9-0.1,3-4.8,2.9-10.9&#10;&#9;&#9;&#9;&#9;&#9;c6.2,3.3,11.5,5,12.6,3.7l0.1-0.1C599.9,331.3,595,326.5,587.6,322.1z" style="fill: rgb(255, 147, 30);"/>
			</g><path class="st12" d="M454.2,78c5.8-4.9,32.2,6.8,32.2,6.8s30.2-15.6,65.3-15.6c35.1,0,59.4,15.6,59.4,15.6s30.2-14.6,36-9.7&#10;&#9;&#9;&#9;&#9;c5.8,4.9-5.9,45.2-5.8,60.4c0.1,49.2,37,171.5-94.5,172.4c-131.5,1-91.4-123.9-89.6-172.4C457.7,121.1,448.4,82.9,454.2,78z" style="fill: rgb(162, 115, 216);" transform="matrix(1, 0, 0, 1, 0, 0)"/><path class="st13" d="M641.3,135.5c0-0.4,0-0.8,0-1.2c-8-16.2-24.7-27.4-44.1-27.4c-22.9,0-42.1,15.6-47.5,36.8&#10;&#9;&#9;&#9;&#9;c-5.5-21.2-24.7-36.8-47.5-36.8c-20.2,0-37.5,12.2-45.1,29.6c-0.4,8-1.7,18-3.1,29.1c4.5,22.5,24.3,39.5,48.2,39.5&#10;&#9;&#9;&#9;&#9;c22.9,0,42.1-15.6,47.5-36.8c5.5,21.2,24.7,36.8,47.5,36.8c21.9,0,40.4-14.3,46.8-34.1C642.7,157.3,641.3,145,641.3,135.5z" style="fill: rgb(188, 148, 221);" transform="matrix(1, 0, 0, 1, 0, 0)"/><path class="st13" d="M551.2,212.5c-41.7,0-75.5,32.9-75.5,73.6c0,0.3,0,0.7,0,1c14.7,13,37.2,21.2,71.1,20.9&#10;&#9;&#9;&#9;&#9;c40.4-0.3,64.9-12.1,79.5-29.6C622.3,241.3,590.2,212.5,551.2,212.5z" style="fill: rgb(188, 148, 221);" transform="matrix(1, 0, 0, 1, 0, 0)"/><path d="M 534.099998 150.100006 A 35.099998 35.099998 0 0 1 499 185.200005 A 35.099998 35.099998 0 0 1 463.900002 150.100006 A 35.099998 35.099998 0 0 1 499 115.000008 A 35.099998 35.099998 0 0 1 534.099998 150.100006 Z" class="st9" style="fill: rgb(255, 255, 255);" transform="matrix(1, 0, 0, 1, 0, 0)"/><path d="M 518.599987 140 A 19.299999 19.299999 0 0 1 499.299988 159.299999 A 19.299999 19.299999 0 0 1 479.999989 140 A 19.299999 19.299999 0 0 1 499.299988 120.700001 A 19.299999 19.299999 0 0 1 518.599987 140 Z" transform="matrix(1, 0, 0, 1, 0, 0)"/><path d="M 502.799988 135.5 A 3.5 3.5 0 0 1 499.299988 139 A 3.5 3.5 0 0 1 495.799988 135.5 A 3.5 3.5 0 0 1 499.299988 132 A 3.5 3.5 0 0 1 502.799988 135.5 Z" class="st9" style="fill: rgb(255, 255, 255);" transform="matrix(1, 0, 0, 1, 0, 0)"/><path d="M 635.500023 150.100006 A 35.099998 35.099998 0 0 1 600.400024 185.200005 A 35.099998 35.099998 0 0 1 565.300026 150.100006 A 35.099998 35.099998 0 0 1 600.400024 115.000008 A 35.099998 35.099998 0 0 1 635.500023 150.100006 Z" class="st9" style="fill: rgb(255, 255, 255);" transform="matrix(1, 0, 0, 1, 0, 0)"/><path d="M 619.899975 140 A 19.299999 19.299999 0 0 1 600.599976 159.299999 A 19.299999 19.299999 0 0 1 581.299976 140 A 19.299999 19.299999 0 0 1 600.599976 120.700001 A 19.299999 19.299999 0 0 1 619.899975 140 Z" transform="matrix(1, 0, 0, 1, 0, 0)"/><path d="M 604.099976 135.5 A 3.5 3.5 0 0 1 600.599976 139 A 3.5 3.5 0 0 1 597.099976 135.5 A 3.5 3.5 0 0 1 600.599976 132 A 3.5 3.5 0 0 1 604.099976 135.5 Z" class="st9" style="fill: rgb(255, 255, 255);" transform="matrix(1, 0, 0, 1, 0, 0)"/><path class="st4" d="M561.4,172.9c-8.7-10.2-22.5-3.8-23.4,0c-0.9,3.8,12.7,23,12.7,23S561.3,176.7,561.4,172.9z" style="fill: rgb(249, 149, 37);" transform="matrix(1, 0, 0, 1, 0, 0)"/><path class="st14" d="M619.9,240.4c5.4-22.5,13.4-32.2,19.8-35.9c11.7-6.1,24.8,23.8,30.1,42.4c6,21,6.1,39.4,0.3,41.1&#10;&#9;&#9;&#9;&#9;&#9;c-4.2,1.3-10.3-6.5-15.7-18.8c-2.1,13.6-6,22.6-10.5,21.9c-4.2-0.6-7.8-9.9-9.6-23.1c-4.8,12.2-10.3,19.6-14.2,17.7&#10;&#9;&#9;&#9;&#9;&#9;C614.7,283.2,614.6,262.9,619.9,240.4z" style="fill: rgb(102, 45, 145);" transform="matrix(1, 0, 0, 1, 0, 0)"/><path class="st14" d="M480.5,241.7c-4.6-22.6-12.3-32.7-18.6-36.6c-11.4-6.5-25.6,22.9-31.5,41.4c-6.7,20.7-7.5,39.1-1.7,41.1&#10;&#9;&#9;&#9;&#9;&#9;c4.1,1.4,10.5-6.1,16.3-18.2c1.6,13.7,5.3,22.8,9.7,22.3c4.3-0.5,8.1-9.6,10.3-22.7c4.4,12.4,9.7,19.9,13.6,18.2&#10;&#9;&#9;&#9;&#9;&#9;C484.3,284.6,485.2,264.3,480.5,241.7z" style="fill: rgb(102, 45, 145);" transform="matrix(1, 0, 0, 1, 0, 0)"/><g transform="matrix(1, 0, 0, 1, 0, 0)">
					<g>
						<path class="st15" d="M549.4,256.7c0,0-0.1,0-0.1,0c-5.8,0-10.2-3.6-11.4-9.2c-0.2-1.1,0.3-2.1,1.2-2.4&#10;&#9;&#9;&#9;&#9;&#9;&#9;&#9;c0.9-0.3,1.8,0.5,2.1,1.5c0.9,4.6,4.9,6.2,8.1,6.3c3.6,0,7.8-1.9,8.8-6.3c0.2-1.1,1.2-1.7,2.1-1.5c0.9,0.3,1.5,1.2,1.2,2.3&#10;&#9;&#9;&#9;&#9;&#9;&#9;&#9;C560,254,554.4,256.7,549.4,256.7z" style="fill: rgb(211, 183, 234);"/>
					</g>
					<g>
						<path class="st15" d="M513.2,256.7c0,0-0.1,0-0.1,0c-5.8,0-10.2-3.6-11.4-9.2c-0.2-1.1,0.3-2.1,1.2-2.4&#10;&#9;&#9;&#9;&#9;&#9;&#9;&#9;c0.9-0.3,1.8,0.5,2.1,1.5c0.9,4.6,4.9,6.2,8.1,6.3c3.6,0,7.8-1.9,8.8-6.3c0.2-1.1,1.2-1.7,2.1-1.5c0.9,0.3,1.5,1.2,1.2,2.3&#10;&#9;&#9;&#9;&#9;&#9;&#9;&#9;C523.7,254,518.2,256.7,513.2,256.7z" style="fill: rgb(211, 183, 234);"/>
					</g>
					<g>
						<path class="st15" d="M585.6,256.7c0,0-0.1,0-0.1,0c-5.8,0-10.2-3.6-11.4-9.2c-0.2-1.1,0.3-2.1,1.2-2.4&#10;&#9;&#9;&#9;&#9;&#9;&#9;&#9;c0.9-0.3,1.8,0.5,2.1,1.5c0.9,4.6,4.9,6.2,8.1,6.3c3.6,0,7.8-1.9,8.8-6.3c0.2-1.1,1.2-1.7,2.1-1.5c0.9,0.3,1.5,1.2,1.2,2.3&#10;&#9;&#9;&#9;&#9;&#9;&#9;&#9;C596.2,254,590.6,256.7,585.6,256.7z" style="fill: rgb(211, 183, 234);"/>
					</g>
				</g><g transform="matrix(1, 0, 0, 1, 0, 0)">
						<path class="st15" d="M567,285.7c0,0-0.1,0-0.1,0c-5.8,0-10.2-3.8-11.4-9.4c-0.2-1.1,0.3-2.2,1.2-2.5c0.9-0.3,1.8,0.4,2.1,1.5&#10;&#9;&#9;&#9;&#9;&#9;&#9;&#9;c0.9,4.6,4.9,6.2,8.1,6.2c3.6,0,7.8-1.9,8.8-6.3c0.2-1.1,1.2-1.7,2.1-1.5c0.9,0.3,1.5,1.5,1.2,2.5&#10;&#9;&#9;&#9;&#9;&#9;&#9;&#9;C577.5,282.7,571.9,285.7,567,285.7z" style="fill: rgb(211, 183, 234);"/>
					</g><path class="st15" d="M531.9,285.7c0,0-0.1,0-0.1,0c-5.8,0-10.2-3.8-11.4-9.4c-0.2-1.1,0.3-2.2,1.2-2.5&#10;&#9;&#9;&#9;&#9;&#9;&#9;&#9;c0.9-0.3,1.8,0.4,2.1,1.5c0.9,4.6,4.9,6.2,8.1,6.2c3.6,0,7.8-1.9,8.8-6.3c0.2-1.1,1.2-1.7,2.1-1.5c0.9,0.3,1.5,1.5,1.2,2.5&#10;&#9;&#9;&#9;&#9;&#9;&#9;&#9;C542.4,282.7,536.8,285.7,531.9,285.7z" style="fill: rgb(211, 183, 234);" transform="matrix(1, 0, 0, 1, 0, 0)"/><path class="st16" d="M123.8,78c5.8-4.9,32.2,6.8,32.2,6.8s30.2-15.6,65.3-15.6c35.1,0,59.4,15.6,59.4,15.6s30.2-14.6,36-9.7&#10;&#9;&#9;&#9;&#9;c5.8,4.9-5.9,45.2-5.8,60.4c0.1,49.2,37,171.5-94.5,172.4c-131.5,1-91.4-123.9-89.6-172.4C127.2,121.1,117.9,82.9,123.8,78z" style="fill: rgb(72, 77, 68);" transform="matrix(1, 0, 0, 1, 0, 0)"/><path class="st1" d="M193.8,323.4l-2.8-2.7l3.2-31.4c0.8-7.5-0.3-13.7-2.5-13.8l-0.1,0c-2.1-0.2-4.5,5.8-5.2,13.2l-3.3,32.4&#10;&#9;&#9;&#9;&#9;&#9;l-2.3,1.3c-7.4,4.3-12.4,8.9-11.2,10.4l0.1,0.1c1.1,1.3,6.4-0.3,12.6-3.5c-0.3,6.2,0.8,10.9,2.7,11l0.1,0&#10;&#9;&#9;&#9;&#9;&#9;c1.9,0.1,4-4.6,4.9-10.9c5.2,4.5,10.2,7.3,11.6,6.2l0.1-0.1C203.2,334.5,199.7,329,193.8,323.4z" style="fill: rgb(255, 147, 30);" transform="matrix(1, 0, 0, 1, 0, 0)"/><path class="st1" d="M253.9,322.1l-2.3-1.4l-2.7-32.2c-0.6-7.5-2.9-13.2-5-13.1l-0.1,0c-2.1,0.1-3.4,6-2.7,13.5l2.6,31.1&#10;&#9;&#9;&#9;&#9;&#9;l-2.9,2.6c-6.1,5.5-9.7,11-8.1,12.2l0.1,0.1c1.4,1.1,6.4-1.6,11.7-6c0.8,6.4,2.8,11.1,4.8,11l0.1,0c1.9-0.1,3-4.8,2.9-10.9&#10;&#9;&#9;&#9;&#9;&#9;c6.2,3.3,11.5,5,12.6,3.7l0.1-0.1C266.1,331.3,261.2,326.5,253.9,322.1z" style="fill: rgb(255, 147, 30);" transform="matrix(1, 0, 0, 1, 0, 0)"/><path class="st17" d="M311.2,135.5c0-0.4,0-0.8,0-1.2c-8-16.2-24.7-27.4-44.1-27.4c-22.9,0-42.1,15.6-47.5,36.8&#10;&#9;&#9;&#9;&#9;c-5.5-21.2-24.7-36.8-47.5-36.8c-20.2,0-37.5,12.2-45.1,29.6c-0.4,8-1.7,18-3.1,29.1c4.5,22.5,24.3,39.5,48.2,39.5&#10;&#9;&#9;&#9;&#9;c22.9,0,42.1-15.6,47.5-36.8c5.5,21.2,24.7,36.8,47.5,36.8c21.9,0,40.4-14.3,46.8-34.1C312.7,157.3,311.2,145,311.2,135.5z" style="fill: rgb(102, 102, 102);" transform="matrix(1, 0, 0, 1, 0, 0)"/><path class="st17" d="M220.7,212.5c-41.7,0-75.5,32.9-75.5,73.6c0,0.3,0,0.7,0,1c14.7,13,37.2,21.2,71.1,20.9&#10;&#9;&#9;&#9;&#9;c40.4-0.3,64.9-12.1,79.5-29.6C291.8,241.3,259.7,212.5,220.7,212.5z" style="fill: rgb(102, 102, 102);" transform="matrix(1, 0, 0, 1, 0, 0)"/><path d="M 203.700005 150.100006 A 35.099998 35.099998 0 0 1 168.600006 185.200005 A 35.099998 35.099998 0 0 1 133.500008 150.100006 A 35.099998 35.099998 0 0 1 168.600006 115.000008 A 35.099998 35.099998 0 0 1 203.700005 150.100006 Z" class="st9" style="fill: rgb(255, 255, 255);" transform="matrix(1, 0, 0, 1, 0, 0)"/><path d="M177.3,141.7c0,10.7-8.6,19.3-19.3,19.3c-10.7,0-19.3-8.6-19.3-19.3c0-10.7,8.6-19.3,19.3-19.3&#10;&#9;&#9;&#9;&#9;C168.7,122.4,177.3,131.1,177.3,141.7z" transform="matrix(1, 0, 0, 1, 0, 0)"/><path d="M 150.800003 134.899994 A 3.5 3.5 0 0 1 147.300003 138.399994 A 3.5 3.5 0 0 1 143.800003 134.899994 A 3.5 3.5 0 0 1 147.300003 131.399994 A 3.5 3.5 0 0 1 150.800003 134.899994 Z" class="st9" style="fill: rgb(255, 255, 255);" transform="matrix(1, 0, 0, 1, 0, 0)"/><path d="M 304.999992 150.100006 A 35.099998 35.099998 0 0 1 269.899994 185.200005 A 35.099998 35.099998 0 0 1 234.799995 150.100006 A 35.099998 35.099998 0 0 1 269.899994 115.000008 A 35.099998 35.099998 0 0 1 304.999992 150.100006 Z" class="st9" style="fill: rgb(255, 255, 255);" transform="matrix(1, 0, 0, 1, 0, 0)"/><path d="M 278.699993 141.699997 A 19.299999 19.299999 0 0 1 259.399994 160.999996 A 19.299999 19.299999 0 0 1 240.099995 141.699997 A 19.299999 19.299999 0 0 1 259.399994 122.399998 A 19.299999 19.299999 0 0 1 278.699993 141.699997 Z" transform="matrix(1, 0, 0, 1, 0, 0)"/><path d="M 252.199997 134.899994 A 3.5 3.5 0 0 1 248.699997 138.399994 A 3.5 3.5 0 0 1 245.199997 134.899994 A 3.5 3.5 0 0 1 248.699997 131.399994 A 3.5 3.5 0 0 1 252.199997 134.899994 Z" class="st9" style="fill: rgb(255, 255, 255);" transform="matrix(1, 0, 0, 1, 0, 0)"/><path class="st4" d="M230.9,172.9c-8.7-10.2-22.5-3.8-23.4,0c-0.9,3.8,12.7,23,12.7,23S230.9,176.7,230.9,172.9z" style="fill: rgb(249, 149, 37);" transform="matrix(1, 0, 0, 1, 0, 0)"/><path d="M286.9,237.4c5.4-22.5,13.4-32.2,19.8-35.9c11.7-6.1,24.8,23.8,30.1,42.4c6,21,6.1,39.4,0.3,41.1&#10;&#9;&#9;&#9;&#9;c-4.2,1.3-10.3-6.5-15.7-18.8c-2.1,13.6-6,22.6-10.5,21.9c-4.2-0.6-7.8-9.9-9.6-23.1c-4.8,12.2-10.3,19.6-14.2,17.7&#10;&#9;&#9;&#9;&#9;C281.7,280.2,281.5,259.8,286.9,237.4z" transform="matrix(1, 0, 0, 1, 0, 0)"/><path d="M147.5,238.7c-4.6-22.6-12.3-32.7-18.6-36.6c-11.4-6.5-25.6,22.9-31.5,41.4c-6.7,20.7-7.5,39.1-1.7,41.1&#10;&#9;&#9;&#9;&#9;c4.1,1.4,10.5-6.1,16.3-18.2c1.6,13.7,5.3,22.8,9.7,22.3c4.3-0.5,8.1-9.6,10.3-22.7c4.4,12.4,9.7,19.9,13.6,18.2&#10;&#9;&#9;&#9;&#9;C151.3,281.6,152.1,261.3,147.5,238.7z" transform="matrix(1, 0, 0, 1, 0, 0)"/><g transform="matrix(1, 0, 0, 1, 0, 0)">
					<g>
						<path class="st18" d="M220.3,256.7c0,0-0.1,0-0.1,0c-5.8,0-10.2-3.6-11.4-9.2c-0.2-1.1,0.3-2.1,1.2-2.4&#10;&#9;&#9;&#9;&#9;&#9;&#9;&#9;c0.9-0.3,1.8,0.5,2.1,1.5c0.9,4.6,4.9,6.2,8.1,6.3c3.6,0,7.8-1.9,8.8-6.3c0.2-1.1,1.2-1.7,2.1-1.5c0.9,0.3,1.5,1.2,1.2,2.3&#10;&#9;&#9;&#9;&#9;&#9;&#9;&#9;C230.8,254,225.2,256.7,220.3,256.7z" style="fill: rgb(242, 242, 242);"/>
					</g>
					<g>
						<path class="st18" d="M184,256.7c0,0-0.1,0-0.1,0c-5.8,0-10.2-3.6-11.4-9.2c-0.2-1.1,0.3-2.1,1.2-2.4c0.9-0.3,1.8,0.5,2.1,1.5&#10;&#9;&#9;&#9;&#9;&#9;&#9;&#9;c0.9,4.6,4.9,6.2,8.1,6.3c3.6,0,7.8-1.9,8.8-6.3c0.2-1.1,1.2-1.7,2.1-1.5c0.9,0.3,1.5,1.2,1.2,2.3&#10;&#9;&#9;&#9;&#9;&#9;&#9;&#9;C194.6,254,189,256.7,184,256.7z" style="fill: rgb(242, 242, 242);"/>
					</g>
					<g>
						<path class="st18" d="M256.5,256.7c0,0-0.1,0-0.1,0c-5.8,0-10.2-3.6-11.4-9.2c-0.2-1.1,0.3-2.1,1.2-2.4&#10;&#9;&#9;&#9;&#9;&#9;&#9;&#9;c0.9-0.3,1.8,0.5,2.1,1.5c0.9,4.6,4.9,6.2,8.1,6.3c3.6,0,7.8-1.9,8.8-6.3c0.2-1.1,1.2-1.7,2.1-1.5c0.9,0.3,1.5,1.2,1.2,2.3&#10;&#9;&#9;&#9;&#9;&#9;&#9;&#9;C267.1,254,261.5,256.7,256.5,256.7z" style="fill: rgb(242, 242, 242);"/>
					</g>
				</g><g transform="matrix(1, 0, 0, 1, 0, 0)">
						<path class="st18" d="M237.8,285.7c0,0-0.1,0-0.1,0c-5.8,0-10.2-3.8-11.4-9.4c-0.2-1.1,0.3-2.2,1.2-2.5&#10;&#9;&#9;&#9;&#9;&#9;&#9;&#9;c0.9-0.3,1.8,0.4,2.1,1.5c0.9,4.6,4.9,6.2,8.1,6.2c3.6,0,7.8-1.9,8.8-6.3c0.2-1.1,1.2-1.7,2.1-1.5c0.9,0.3,1.5,1.5,1.2,2.5&#10;&#9;&#9;&#9;&#9;&#9;&#9;&#9;C248.4,282.7,242.8,285.7,237.8,285.7z" style="fill: rgb(242, 242, 242);"/>
					</g><path class="st18" d="M202.7,285.7c0,0-0.1,0-0.1,0c-5.8,0-10.2-3.8-11.4-9.4c-0.2-1.1,0.3-2.2,1.2-2.5&#10;&#9;&#9;&#9;&#9;&#9;&#9;&#9;c0.9-0.3,1.8,0.4,2.1,1.5c0.9,4.6,4.9,6.2,8.1,6.2c3.6,0,7.8-1.9,8.8-6.3c0.2-1.1,1.2-1.7,2.1-1.5c0.9,0.3,1.5,1.5,1.2,2.5&#10;&#9;&#9;&#9;&#9;&#9;&#9;&#9;C213.3,282.7,207.7,285.7,202.7,285.7z" style="fill: rgb(242, 242, 242);" transform="matrix(1, 0, 0, 1, 0, 0)"/><g transform="matrix(1, 0, 0, 1, 0, 0)">
				<path class="st1" d="M862,323.4l-2.8-2.7l3.2-31.4c0.8-7.5-0.3-13.7-2.5-13.8l-0.1,0c-2.1-0.2-4.5,5.8-5.2,13.2l-3.3,32.4&#10;&#9;&#9;&#9;&#9;&#9;l-2.3,1.3c-7.4,4.3-12.4,8.9-11.2,10.4l0.1,0.1c1.1,1.3,6.4-0.3,12.6-3.5c-0.3,6.2,0.8,10.9,2.7,11l0.1,0&#10;&#9;&#9;&#9;&#9;&#9;c1.9,0.1,4-4.6,4.9-10.9c5.2,4.5,10.2,7.3,11.6,6.2l0.1-0.1C871.5,334.5,868,329,862,323.4z" style="fill: rgb(255, 147, 30);"/>
				<path class="st1" d="M922.1,322.1l-2.3-1.4l-2.7-32.2c-0.6-7.5-2.9-13.2-5-13.1l-0.1,0c-2.1,0.1-3.4,6-2.7,13.5l2.6,31.1&#10;&#9;&#9;&#9;&#9;&#9;l-2.9,2.6c-6.1,5.5-9.7,11-8.1,12.2l0.1,0.1c1.4,1.1,6.4-1.6,11.7-6c0.8,6.4,2.8,11.1,4.8,11l0.1,0c1.9-0.1,3-4.8,2.9-10.9&#10;&#9;&#9;&#9;&#9;&#9;c6.2,3.3,11.5,5,12.6,3.7l0.1-0.1C934.4,331.3,929.5,326.5,922.1,322.1z" style="fill: rgb(255, 147, 30);"/>
			</g><path class="st19" d="M787.3,78c5.8-4.9,32.2,6.8,32.2,6.8s30.2-15.6,65.3-15.6c35.1,0,59.4,15.6,59.4,15.6s30.2-14.6,36-9.7&#10;&#9;&#9;&#9;&#9;c5.8,4.9-5.9,45.2-5.8,60.4c0.1,49.2,37,171.5-94.5,172.4c-131.5,1-91.4-123.9-89.6-172.4C790.8,121.1,781.5,82.9,787.3,78z" style="fill: rgb(95, 55, 19);" transform="matrix(1, 0, 0, 1, 0, 0)"/><path class="st3" d="M974.4,135.5c0-0.4,0-0.8,0-1.2c-8-16.2-24.7-27.4-44.1-27.4c-22.9,0-42.1,15.6-47.5,36.8&#10;&#9;&#9;&#9;&#9;c-5.5-21.2-24.7-36.8-47.5-36.8c-20.2,0-37.5,12.2-45.1,29.6c-0.4,8-1.7,18-3.1,29.1c4.5,22.5,24.3,39.5,48.2,39.5&#10;&#9;&#9;&#9;&#9;c22.9,0,42.1-15.6,47.5-36.8c5.5,21.2,24.7,36.8,47.5,36.8c21.9,0,40.4-14.3,46.8-34.1C975.8,157.3,974.4,145,974.4,135.5z" style="fill: rgb(252, 210, 172);" transform="matrix(1, 0, 0, 1, 0, 0)"/><path class="st3" d="M884.3,212.5c-41.7,0-75.5,32.9-75.5,73.6c0,0.3,0,0.7,0,1c14.7,13,37.2,21.2,71.1,20.9&#10;&#9;&#9;&#9;&#9;c40.4-0.3,64.9-12.1,79.5-29.6C955.4,241.3,923.3,212.5,884.3,212.5z" style="fill: rgb(252, 210, 172);" transform="matrix(1, 0, 0, 1, 0, 0)"/><path class="st4" d="M894.5,172.9c-8.7-10.2-22.5-3.8-23.4,0c-0.9,3.8,12.7,23,12.7,23S894.5,176.7,894.5,172.9z" style="fill: rgb(249, 149, 37);" transform="matrix(1, 0, 0, 1, 0, 0)"/><path d="M 867.000023 148.199997 A 35.099998 35.099998 0 0 1 831.900024 183.299995 A 35.099998 35.099998 0 0 1 796.800026 148.199997 A 35.099998 35.099998 0 0 1 831.900024 113.099998 A 35.099998 35.099998 0 0 1 867.000023 148.199997 Z" class="st9" style="fill: rgb(255, 255, 255);" transform="matrix(1, 0, 0, 1, 0, 0)"/><path d="M 851.200024 148.100006 A 19.299999 19.299999 0 0 1 831.900024 167.400005 A 19.299999 19.299999 0 0 1 812.600025 148.100006 A 19.299999 19.299999 0 0 1 831.900024 128.800007 A 19.299999 19.299999 0 0 1 851.200024 148.100006 Z" transform="matrix(1, 0, 0, 1, 0, 0)"/><path d="M 824.599976 141.300003 A 3.5 3.5 0 0 1 821.099976 144.800003 A 3.5 3.5 0 0 1 817.599976 141.300003 A 3.5 3.5 0 0 1 821.099976 137.800003 A 3.5 3.5 0 0 1 824.599976 141.300003 Z" class="st9" style="fill: rgb(255, 255, 255);" transform="matrix(1, 0, 0, 1, 0, 0)"/><path d="M 968.399986 148.199997 A 35.099998 35.099998 0 0 1 933.299988 183.299995 A 35.099998 35.099998 0 0 1 898.199989 148.199997 A 35.099998 35.099998 0 0 1 933.299988 113.099998 A 35.099998 35.099998 0 0 1 968.399986 148.199997 Z" class="st9" style="fill: rgb(255, 255, 255);" transform="matrix(1, 0, 0, 1, 0, 0)"/><path d="M 952.700024 148.199997 A 19.299999 19.299999 0 0 1 933.400024 167.499996 A 19.299999 19.299999 0 0 1 914.100025 148.199997 A 19.299999 19.299999 0 0 1 933.400024 128.899998 A 19.299999 19.299999 0 0 1 952.700024 148.199997 Z" transform="matrix(1, 0, 0, 1, 0, 0)"/><path d="M 943.700012 137.399994 A 3.5 3.5 0 0 1 940.200012 140.899994 A 3.5 3.5 0 0 1 936.700012 137.399994 A 3.5 3.5 0 0 1 940.200012 133.899994 A 3.5 3.5 0 0 1 943.700012 137.399994 Z" class="st9" style="fill: rgb(255, 255, 255);" transform="matrix(1, 0, 0, 1, 0, 0)"/><path class="st20" d="M949.4,237.6c5.4-22.5,13.4-32.2,19.8-35.9c11.7-6.1,24.8,23.8,30.1,42.4c6,21,6.1,39.4,0.3,41.1&#10;&#9;&#9;&#9;&#9;&#9;c-4.2,1.3-10.3-6.5-15.7-18.8c-2.1,13.6-6,22.6-10.5,21.9c-4.2-0.6-7.8-9.9-9.6-23.1c-4.8,12.2-10.3,19.6-14.2,17.7&#10;&#9;&#9;&#9;&#9;&#9;C944.2,280.4,944,260.1,949.4,237.6z" style="fill: rgb(140, 98, 57);" transform="matrix(1, 0, 0, 1, 0, 0)"/><path class="st20" d="M810,238.9c-4.6-22.6-12.3-32.7-18.6-36.6c-11.4-6.5-25.6,22.9-31.5,41.4c-6.7,20.7-7.5,39.1-1.7,41.1&#10;&#9;&#9;&#9;&#9;&#9;c4.1,1.4,10.5-6.1,16.3-18.2c1.6,13.7,5.3,22.8,9.7,22.3c4.3-0.5,8.1-9.6,10.3-22.7c4.4,12.4,9.7,19.9,13.6,18.2&#10;&#9;&#9;&#9;&#9;&#9;C813.8,281.8,814.6,261.5,810,238.9z" style="fill: rgb(140, 98, 57);" transform="matrix(1, 0, 0, 1, 0, 0)"/><g transform="matrix(1, 0, 0, 1, 0, 0)">
					<g>
						<path class="st19" d="M884.9,256.7c0,0-0.1,0-0.1,0c-5.8,0-10.2-3.6-11.4-9.2c-0.2-1.1,0.3-2.1,1.2-2.4&#10;&#9;&#9;&#9;&#9;&#9;&#9;&#9;c0.9-0.3,1.8,0.5,2.1,1.5c0.9,4.6,4.9,6.2,8.1,6.3c3.6,0,7.8-1.9,8.8-6.3c0.2-1.1,1.2-1.7,2.1-1.5s1.5,1.2,1.2,2.3&#10;&#9;&#9;&#9;&#9;&#9;&#9;&#9;C895.5,254,889.9,256.7,884.9,256.7z" style="fill: rgb(95, 55, 19);"/>
					</g>
					<g>
						<path class="st19" d="M848.7,256.7c0,0-0.1,0-0.1,0c-5.8,0-10.2-3.6-11.4-9.2c-0.2-1.1,0.3-2.1,1.2-2.4&#10;&#9;&#9;&#9;&#9;&#9;&#9;&#9;c0.9-0.3,1.8,0.5,2.1,1.5c0.9,4.6,4.9,6.2,8.1,6.3c3.6,0,7.8-1.9,8.8-6.3c0.2-1.1,1.2-1.7,2.1-1.5c0.9,0.3,1.5,1.2,1.2,2.3&#10;&#9;&#9;&#9;&#9;&#9;&#9;&#9;C859.3,254,853.7,256.7,848.7,256.7z" style="fill: rgb(95, 55, 19);"/>
					</g>
					<g>
						<path class="st19" d="M921.2,256.7c0,0-0.1,0-0.1,0c-5.8,0-10.2-3.6-11.4-9.2c-0.2-1.1,0.3-2.1,1.2-2.4&#10;&#9;&#9;&#9;&#9;&#9;&#9;&#9;c0.9-0.3,1.8,0.5,2.1,1.5c0.9,4.6,4.9,6.2,8.1,6.3c3.6,0,7.8-1.9,8.8-6.3c0.2-1.1,1.2-1.7,2.1-1.5c0.9,0.3,1.5,1.2,1.2,2.3&#10;&#9;&#9;&#9;&#9;&#9;&#9;&#9;C931.7,254,926.1,256.7,921.2,256.7z" style="fill: rgb(95, 55, 19);"/>
					</g>
				</g><g transform="matrix(1, 0, 0, 1, 0, 0)">
						<path class="st19" d="M902.5,285.7c0,0-0.1,0-0.1,0c-5.8,0-10.2-3.8-11.4-9.4c-0.2-1.1,0.3-2.2,1.2-2.5&#10;&#9;&#9;&#9;&#9;&#9;&#9;&#9;c0.9-0.3,1.8,0.4,2.1,1.5c0.9,4.6,4.9,6.2,8.1,6.2c3.6,0,7.8-1.9,8.8-6.3c0.2-1.1,1.2-1.7,2.1-1.5c0.9,0.3,1.5,1.5,1.2,2.5&#10;&#9;&#9;&#9;&#9;&#9;&#9;&#9;C913.1,282.7,907.5,285.7,902.5,285.7z" style="fill: rgb(95, 55, 19);"/>
					</g><path class="st19" d="M867.4,285.7c0,0-0.1,0-0.1,0c-5.8,0-10.2-3.8-11.4-9.4c-0.2-1.1,0.3-2.2,1.2-2.5&#10;&#9;&#9;&#9;&#9;&#9;&#9;&#9;c0.9-0.3,1.8,0.4,2.1,1.5c0.9,4.6,4.9,6.2,8.1,6.2c3.6,0,7.8-1.9,8.8-6.3c0.2-1.1,1.2-1.7,2.1-1.5c0.9,0.3,1.5,1.5,1.2,2.5&#10;&#9;&#9;&#9;&#9;&#9;&#9;&#9;C878,282.7,872.4,285.7,867.4,285.7z" style="fill: rgb(95, 55, 19);" transform="matrix(1, 0, 0, 1, 0, 0)"/><g transform="matrix(1, 0, 0, 1, 0, 0)">
				<path class="st1" d="M193.8,665.5l-2.8-2.7l3.2-31.4c0.8-7.5-0.3-13.7-2.5-13.8l-0.1,0c-2.1-0.2-4.5,5.8-5.2,13.2l-3.3,32.4&#10;&#9;&#9;&#9;&#9;&#9;l-2.3,1.3c-7.4,4.3-12.4,8.9-11.2,10.4l0.1,0.1c1.1,1.3,6.4-0.3,12.6-3.5c-0.3,6.2,0.8,10.9,2.7,11l0.1,0&#10;&#9;&#9;&#9;&#9;&#9;c1.9,0.1,4-4.6,4.9-10.9c5.2,4.5,10.2,7.3,11.6,6.2l0.1-0.1C203.2,676.7,199.7,671.2,193.8,665.5z" style="fill: rgb(255, 147, 30);"/>
				<path class="st1" d="M253.9,664.3l-2.3-1.4l-2.7-32.2c-0.6-7.5-2.9-13.2-5-13.1l-0.1,0c-2.1,0.1-3.4,6-2.7,13.5l2.6,31.1&#10;&#9;&#9;&#9;&#9;&#9;l-2.9,2.6c-6.1,5.5-9.7,11-8.1,12.2l0.1,0.1c1.4,1.1,6.4-1.6,11.7-6c0.8,6.4,2.8,11.1,4.8,11l0.1,0c1.9-0.1,3-4.8,2.9-10.9&#10;&#9;&#9;&#9;&#9;&#9;c6.2,3.3,11.5,5,12.6,3.7l0.1-0.1C266.1,673.4,261.2,668.7,253.9,664.3z" style="fill: rgb(255, 147, 30);"/>
			</g><path class="st21" d="M303.8,420.5c-5.8-4.9-32.2,6.8-32.2,6.8s-30.2-15.6-65.3-15.6c-35.1,0-59.4,15.6-59.4,15.6&#10;&#9;&#9;&#9;&#9;s-30.2-14.6-36-9.7c-5.8,4.9,5.9,45.2,5.8,60.4c-0.1,49.2-37,171.5,94.5,172.4c131.5,1,91.4-123.9,89.6-172.4&#10;&#9;&#9;&#9;&#9;C300.3,463.6,309.6,425.4,303.8,420.5z" style="fill: rgb(186, 210, 52);" transform="matrix(1, 0, 0, 1, 0, 0)"/><path class="st22" d="M301,478.3c0-0.4,0-0.8,0-1.2c-8-16.2-24.7-27.4-44.1-27.4c-22.9,0-42.1,15.6-47.5,36.8&#10;&#9;&#9;&#9;&#9;c-5.5-21.2-24.7-36.8-47.5-36.8c-20.2,0-37.5,12.2-45.1,29.6c-0.4,8-1.7,18-3.1,29.1c4.5,22.5,24.3,39.5,48.2,39.5&#10;&#9;&#9;&#9;&#9;c22.9,0,42.1-15.6,47.5-36.8c5.5,21.2,24.7,36.8,47.5,36.8c21.9,0,40.4-14.3,46.8-34.1C302.4,500.2,301,487.9,301,478.3z" style="fill: rgb(140, 198, 63);" transform="matrix(1, 0, 0, 1, 0, 0)"/><path class="st23" d="M215.5,555.3c-41.7,0-75.5,32.9-75.5,73.6c0,0.3,0,0.7,0,1c14.7,13,37.2,21.2,71.1,20.9&#10;&#9;&#9;&#9;&#9;c40.4-0.3,64.9-12.1,79.5-29.6C286.6,584.1,254.5,555.3,215.5,555.3z" style="fill: rgb(247, 249, 185);" transform="matrix(1, 0, 0, 1, 0, 0)"/><path class="st22" d="M278.3,570.6c5.4-22.5,13.4-32.2,19.8-35.9c11.7-6.1,24.8,23.8,30.1,42.4c6,21,6.1,39.4,0.3,41.1&#10;&#9;&#9;&#9;&#9;c-4.2,1.3-10.3-6.5-15.7-18.8c-2.1,13.6-6,22.6-10.5,21.9c-4.2-0.6-7.8-9.9-9.6-23.1c-4.8,12.2-10.3,19.6-14.2,17.7&#10;&#9;&#9;&#9;&#9;C273,613.4,272.9,593.1,278.3,570.6z" style="fill: rgb(140, 198, 63);" transform="matrix(1, 0, 0, 1, 0, 0)"/><path class="st22" d="M138.8,571.9c-4.6-22.6-12.3-32.7-18.6-36.6c-11.4-6.5-25.6,22.9-31.5,41.4c-6.7,20.7-7.5,39.1-1.7,41.1&#10;&#9;&#9;&#9;&#9;c4.1,1.4,10.5-6.1,16.3-18.2c1.6,13.7,5.3,22.8,9.7,22.3c4.3-0.5,8.1-9.6,10.3-22.7c4.4,12.4,9.7,19.9,13.6,18.2&#10;&#9;&#9;&#9;&#9;C142.6,614.9,143.5,594.5,138.8,571.9z" style="fill: rgb(140, 198, 63);" transform="matrix(1, 0, 0, 1, 0, 0)"/><g transform="matrix(1, 0, 0, 1, 0, 0)">
					<g>
						<path class="st24" d="M209.7,598.6c0,0-0.1,0-0.1,0c-5.8,0-10.2-3.6-11.4-9.2c-0.2-1.1,0.3-2.1,1.2-2.4&#10;&#9;&#9;&#9;&#9;&#9;&#9;&#9;c0.9-0.3,1.8,0.5,2.1,1.5c0.9,4.6,4.9,6.2,8.1,6.3c3.6,0,7.8-1.9,8.8-6.3c0.2-1.1,1.2-1.7,2.1-1.5c0.9,0.3,1.5,1.2,1.2,2.3&#10;&#9;&#9;&#9;&#9;&#9;&#9;&#9;C220.2,595.9,214.6,598.6,209.7,598.6z" style="fill: rgb(122, 201, 67);"/>
					</g>
					<g>
						<path class="st24" d="M173.4,598.6c0,0-0.1,0-0.1,0c-5.8,0-10.2-3.6-11.4-9.2c-0.2-1.1,0.3-2.1,1.2-2.4&#10;&#9;&#9;&#9;&#9;&#9;&#9;&#9;c0.9-0.3,1.8,0.5,2.1,1.5c0.9,4.6,4.9,6.2,8.1,6.3c3.6,0,7.8-1.9,8.8-6.3c0.2-1.1,1.2-1.7,2.1-1.5c0.9,0.3,1.5,1.2,1.2,2.3&#10;&#9;&#9;&#9;&#9;&#9;&#9;&#9;C184,595.9,178.4,598.6,173.4,598.6z" style="fill: rgb(122, 201, 67);"/>
					</g>
					<g>
						<path class="st24" d="M245.9,598.6c0,0-0.1,0-0.1,0c-5.8,0-10.2-3.6-11.4-9.2c-0.2-1.1,0.3-2.1,1.2-2.4&#10;&#9;&#9;&#9;&#9;&#9;&#9;&#9;c0.9-0.3,1.8,0.5,2.1,1.5c0.9,4.6,4.9,6.2,8.1,6.3c3.6,0,7.8-1.9,8.8-6.3c0.2-1.1,1.2-1.7,2.1-1.5c0.9,0.3,1.5,1.2,1.2,2.3&#10;&#9;&#9;&#9;&#9;&#9;&#9;&#9;C256.4,595.9,250.9,598.6,245.9,598.6z" style="fill: rgb(122, 201, 67);"/>
					</g>
				</g><g transform="matrix(1, 0, 0, 1, 0, 0)">
						<path class="st24" d="M227.2,627.6c0,0-0.1,0-0.1,0c-5.8,0-10.2-3.8-11.4-9.4c-0.2-1.1,0.3-2.2,1.2-2.5&#10;&#9;&#9;&#9;&#9;&#9;&#9;&#9;c0.9-0.3,1.8,0.4,2.1,1.5c0.9,4.6,4.9,6.2,8.1,6.2c3.6,0,7.8-1.9,8.8-6.3c0.2-1.1,1.2-1.7,2.1-1.5c0.9,0.3,1.5,1.5,1.2,2.5&#10;&#9;&#9;&#9;&#9;&#9;&#9;&#9;C237.8,624.6,232.2,627.6,227.2,627.6z" style="fill: rgb(122, 201, 67);"/>
					</g><path class="st24" d="M192.1,627.6c0,0-0.1,0-0.1,0c-5.8,0-10.2-3.8-11.4-9.4c-0.2-1.1,0.3-2.2,1.2-2.5&#10;&#9;&#9;&#9;&#9;&#9;&#9;&#9;c0.9-0.3,1.8,0.4,2.1,1.5c0.9,4.6,4.9,6.2,8.1,6.2c3.6,0,7.8-1.9,8.8-6.3c0.2-1.1,1.2-1.7,2.1-1.5c0.9,0.3,1.5,1.5,1.2,2.5&#10;&#9;&#9;&#9;&#9;&#9;&#9;&#9;C202.7,624.6,197.1,627.6,192.1,627.6z" style="fill: rgb(122, 201, 67);" transform="matrix(1, 0, 0, 1, 0, 0)"/><path d="M 293.999992 492.600006 A 35.099998 35.099998 0 0 1 258.899994 527.700005 A 35.099998 35.099998 0 0 1 223.799995 492.600006 A 35.099998 35.099998 0 0 1 258.899994 457.500008 A 35.099998 35.099998 0 0 1 293.999992 492.600006 Z" class="st9" style="fill: rgb(255, 255, 255);" transform="matrix(1, 0, 0, 1, 0, 0)"/><path d="M 287.599987 498.799988 A 19.299999 19.299999 0 0 1 268.299988 518.099987 A 19.299999 19.299999 0 0 1 248.999989 498.799988 A 19.299999 19.299999 0 0 1 268.299988 479.499989 A 19.299999 19.299999 0 0 1 287.599987 498.799988 Z" transform="matrix(1, 0, 0, 1, 0, 0)"/><path d="M 282.5 492 A 3.5 3.5 0 0 1 279 495.5 A 3.5 3.5 0 0 1 275.5 492 A 3.5 3.5 0 0 1 279 488.5 A 3.5 3.5 0 0 1 282.5 492 Z" class="st9" style="fill: rgb(255, 255, 255);" transform="matrix(1, 0, 0, 1, 0, 0)"/><path d="M 192.700005 492.600006 A 35.099998 35.099998 0 0 1 157.600006 527.700005 A 35.099998 35.099998 0 0 1 122.500008 492.600006 A 35.099998 35.099998 0 0 1 157.600006 457.500008 A 35.099998 35.099998 0 0 1 192.700005 492.600006 Z" class="st9" style="fill: rgb(255, 255, 255);" transform="matrix(1, 0, 0, 1, 0, 0)"/><path d="M 186.299999 498.799988 A 19.299999 19.299999 0 0 1 167 518.099987 A 19.299999 19.299999 0 0 1 147.700001 498.799988 A 19.299999 19.299999 0 0 1 167 479.499989 A 19.299999 19.299999 0 0 1 186.299999 498.799988 Z" transform="matrix(1, 0, 0, 1, 0, 0)"/><path d="M 181.199997 492 A 3.5 3.5 0 0 1 177.699997 495.5 A 3.5 3.5 0 0 1 174.199997 492 A 3.5 3.5 0 0 1 177.699997 488.5 A 3.5 3.5 0 0 1 181.199997 492 Z" class="st9" style="fill: rgb(255, 255, 255);" transform="matrix(1, 0, 0, 1, 0, 0)"/><path class="st4" d="M196.6,515.4c8.7-10.2,22.5-3.8,23.4,0c0.9,3.8-12.7,23-12.7,23S196.6,519.2,196.6,515.4z" style="fill: rgb(249, 149, 37);" transform="matrix(1, 0, 0, 1, 0, 0)"/>
<g transform="matrix(1, 0, 0, 1, 0, 0)">
		<g>
			<g>
				<path class="st25" d="M570.5,732.9c0.5,0,1,0.5,1,0.5l-8.9,19c-1,0-3.3,0.1-3.9,0.1c-0.5,0-1-0.5-1-0.5l-3-19&#10;&#9;&#9;&#9;&#9;&#9;c1.8,0,4.2-0.1,4.8-0.1c0.5,0,1,0.5,1,0.5l0.9,9.3c0.1,0.8,0.1,1.9,0.1,3.1c0.3-1.3,0.6-2.5,1-3.3l3.7-9.4&#10;&#9;&#9;&#9;&#9;&#9;C567.9,733,569.9,732.9,570.5,732.9L570.5,732.9z" style="fill: rgb(0, 113, 188);"/>
			</g>
			<g>
				<path class="st25" d="M579.7,742.3c0,2.1-1.2,3.4-4,4l-3,0.6c0.2,1.3,1.1,1.9,2.4,1.9c1.7,0,2.8-1.3,2.8-1.3s0.8,0.5,0.8,1.4&#10;&#9;&#9;&#9;&#9;&#9;c0,1.7-2.6,3.6-5.7,3.6c-3.1,0-5.2-2-5.2-5.3c0-3.8,2.7-9.1,7.6-9.1C578.1,738.3,579.7,739.9,579.7,742.3L579.7,742.3z&#10;&#9;&#9;&#9;&#9;&#9; M574.6,744.3c0.6-0.2,0.8-0.7,0.8-1.3c0-0.6-0.2-1.4-0.9-1.4c-1.2,0-1.7,1.9-1.9,3.4L574.6,744.3z" style="fill: rgb(0, 113, 188);"/>
			</g>
			<g>
				<path class="st25" d="M587.9,738.3c2.4,0,4.3,1.3,4.3,3c0,2.1-2.6,2.9-2.6,2.9s-0.7-2.3-2.5-2.3c-1.2,0-1.8,1.2-1.8,3.7&#10;&#9;&#9;&#9;&#9;&#9;c0,2.3,0.6,3.3,2.1,3.3c1.5,0,2.5-1,2.5-1s0.9,0.5,0.9,1.4c0,1.7-2.5,3.4-5.5,3.4c-3.2,0-5.1-2-5.1-5.3&#10;&#9;&#9;&#9;&#9;&#9;C580.1,743.5,582.9,738.3,587.9,738.3L587.9,738.3z" style="fill: rgb(0, 113, 188);"/>
			</g>
			<g>
				<path class="st25" d="M599.6,735.2c0.6,0,1,0.5,1,0.5l-0.5,2.9h3.1l-0.7,2.2c-0.2,0.7-0.6,1.1-1.3,1.1h-1.6l-0.9,5.7&#10;&#9;&#9;&#9;&#9;&#9;c-0.1,0.9,0.1,1.3,0.7,1.3c0.6,0,1.1-0.3,1.1-0.3s0.9,0.5,0.9,1.4c0,1.4-2,2.8-4.5,2.8c-2.6,0-3.7-1.6-3.3-4.5l1-6.3H593&#10;&#9;&#9;&#9;&#9;&#9;l0.7-2.3c0.2-0.6,0.7-1,1.3-1h0.8l1-2.7C598,735.6,599.1,735.2,599.6,735.2L599.6,735.2z" style="fill: rgb(0, 113, 188);"/>
			</g>
			<g>
				<path class="st25" d="M614.5,742.3c0,2.1-1.2,3.4-4,4l-3,0.6c0.2,1.3,1.1,1.9,2.4,1.9c1.7,0,2.8-1.3,2.8-1.3s0.9,0.5,0.9,1.4&#10;&#9;&#9;&#9;&#9;&#9;c0,1.7-2.6,3.6-5.7,3.6c-3.1,0-5.2-2-5.2-5.3c0-3.8,2.7-9.1,7.6-9.1C612.9,738.3,614.5,739.9,614.5,742.3L614.5,742.3z&#10;&#9;&#9;&#9;&#9;&#9; M609.4,744.3c0.6-0.2,0.8-0.7,0.8-1.3c0-0.6-0.2-1.4-0.9-1.4c-1.2,0-1.7,1.9-1.9,3.4L609.4,744.3z" style="fill: rgb(0, 113, 188);"/>
			</g>
			<g>
				<path class="st25" d="M626.9,742.3c0,2.1-1.2,3.4-4,4l-3,0.6c0.2,1.3,1.1,1.9,2.4,1.9c1.7,0,2.8-1.3,2.8-1.3s0.9,0.5,0.9,1.4&#10;&#9;&#9;&#9;&#9;&#9;c0,1.7-2.6,3.6-5.7,3.6c-3.1,0-5.2-2-5.2-5.3c0-3.8,2.7-9.1,7.6-9.1C625.2,738.3,626.9,739.9,626.9,742.3L626.9,742.3z&#10;&#9;&#9;&#9;&#9;&#9; M621.8,744.3c0.6-0.2,0.8-0.7,0.8-1.3c0-0.6-0.2-1.4-0.9-1.4c-1.2,0-1.7,1.9-1.9,3.4L621.8,744.3z" style="fill: rgb(0, 113, 188);"/>
			</g>
			<g>
				<path class="st25" d="M637,747.4c0,0,1,1,1,2.5c0,2.1-1.8,2.7-3.3,2.7c-2,0-3.4-0.9-4.9-1.4c-0.4,0.5-0.8,1-1.2,1.4&#10;&#9;&#9;&#9;&#9;&#9;c0,0-2.2-0.1-2.2-1.6c0-1.8,3.1-5,6.4-8.5c-0.4-0.1-0.7-0.1-1.1-0.1c-1.9,0-2.6,0.9-2.6,0.9s-1-1.1-0.9-2.5c0.1-2,2-2.5,3.5-2.5&#10;&#9;&#9;&#9;&#9;&#9;c1.6,0,2.7,0.6,3.9,1.1l0.9-1.1c0,0,2.2,0.1,2.2,1.6c0,1.8-3,4.9-6.2,8.3c0.7,0.2,1.3,0.3,1.9,0.3&#10;&#9;&#9;&#9;&#9;&#9;C636.2,748.5,637,747.4,637,747.4L637,747.4z" style="fill: rgb(0, 113, 188);"/>
			</g>
			<g>
				<path class="st25" d="M651.3,751.4c-0.8,4.8-4.1,7.3-8.3,7.3c-2.7,0-4.7-1.4-4.7-3c0-1.1,0.9-1.6,0.9-1.6s0.9,0.8,2.7,0.8&#10;&#9;&#9;&#9;&#9;&#9;c1.7,0,4-0.7,4.4-3.3l0.3-2c-1.1,1.6-2.6,3-4.5,3c-2.1,0-3.1-1.7-2.5-5.3l0.6-3.8c0.4-2.3,0.5-4.3,0.5-4.3c1.5-0.3,3.5-1,4.2-1&#10;&#9;&#9;&#9;&#9;&#9;c0.5,0,1,0.5,1,0.5l-0.8,4.8l-0.7,4.4c-0.1,0.4,0,0.6,0.4,0.6c1.8,0,2.8-5.1,2.8-5.1c0.4-2.3,0.5-4.3,0.5-4.3&#10;&#9;&#9;&#9;&#9;&#9;c1.5-0.3,3.5-1,4.2-1c0.5,0,1,0.5,1,0.5l-0.8,4.8L651.3,751.4z" style="fill: rgb(0, 113, 188);"/>
			</g>
		</g>
		<g>
			<path class="st25" d="M446.6,739.1h4.8c1.1,0,1.9,0.1,2.5,0.2c0.8,0.2,1.4,0.6,1.9,1.2c0.5,0.6,0.9,1.3,1.2,2.1&#10;&#9;&#9;&#9;&#9;c0.3,0.8,0.4,1.8,0.4,3c0,1.1-0.1,2-0.4,2.7c-0.3,0.9-0.8,1.7-1.4,2.3c-0.5,0.4-1.1,0.8-1.8,1c-0.6,0.2-1.3,0.3-2.3,0.3h-4.9&#10;&#9;&#9;&#9;&#9;V739.1z M449.2,741.2v8.5h1.9c0.7,0,1.3,0,1.6-0.1c0.4-0.1,0.8-0.3,1.1-0.5c0.3-0.3,0.5-0.7,0.7-1.2c0.2-0.6,0.3-1.4,0.3-2.4&#10;&#9;&#9;&#9;&#9;s-0.1-1.8-0.3-2.3c-0.2-0.5-0.4-0.9-0.7-1.2c-0.3-0.3-0.7-0.5-1.2-0.6c-0.4-0.1-1.1-0.1-2.1-0.1H449.2z" style="fill: rgb(0, 113, 188);"/>
			<path class="st25" d="M464.6,749l2.5,0.4c-0.3,0.9-0.8,1.6-1.5,2.1c-0.7,0.5-1.5,0.7-2.6,0.7c-1.6,0-2.8-0.5-3.6-1.6&#10;&#9;&#9;&#9;&#9;c-0.6-0.8-0.9-1.9-0.9-3.2c0-1.5,0.4-2.8,1.2-3.6c0.8-0.9,1.8-1.3,3.1-1.3c1.4,0,2.5,0.5,3.3,1.4c0.8,0.9,1.2,2.3,1.2,4.2H461&#10;&#9;&#9;&#9;&#9;c0,0.7,0.2,1.3,0.6,1.7c0.4,0.4,0.9,0.6,1.4,0.6c0.4,0,0.7-0.1,1-0.3C464.3,749.8,464.5,749.4,464.6,749z M464.7,746.5&#10;&#9;&#9;&#9;&#9;c0-0.7-0.2-1.3-0.6-1.6c-0.4-0.4-0.8-0.6-1.3-0.6c-0.5,0-1,0.2-1.3,0.6c-0.4,0.4-0.5,0.9-0.5,1.6H464.7z" style="fill: rgb(0, 113, 188);"/>
			<path class="st25" d="M468,749.3l2.5-0.4c0.1,0.5,0.3,0.8,0.6,1.1c0.3,0.2,0.8,0.4,1.4,0.4c0.6,0,1.1-0.1,1.4-0.4&#10;&#9;&#9;&#9;&#9;c0.2-0.2,0.3-0.4,0.3-0.7c0-0.2-0.1-0.3-0.2-0.5c-0.1-0.1-0.4-0.2-0.8-0.3c-2-0.4-3.3-0.8-3.8-1.2c-0.7-0.5-1.1-1.2-1.1-2.1&#10;&#9;&#9;&#9;&#9;c0-0.8,0.3-1.5,1-2c0.6-0.6,1.6-0.8,3-0.8c1.3,0,2.2,0.2,2.8,0.6s1,1,1.3,1.8l-2.3,0.4c-0.1-0.4-0.3-0.6-0.6-0.8&#10;&#9;&#9;&#9;&#9;c-0.3-0.2-0.7-0.3-1.2-0.3c-0.7,0-1.1,0.1-1.4,0.3c-0.2,0.1-0.3,0.3-0.3,0.5c0,0.2,0.1,0.3,0.2,0.4c0.2,0.2,1,0.4,2.3,0.7&#10;&#9;&#9;&#9;&#9;c1.3,0.3,2.2,0.7,2.8,1.1c0.5,0.4,0.8,1.1,0.8,1.8c0,0.9-0.4,1.6-1.1,2.2c-0.7,0.6-1.8,0.9-3.2,0.9c-1.3,0-2.3-0.3-3-0.8&#10;&#9;&#9;&#9;&#9;C468.7,750.9,468.2,750.2,468,749.3z" style="fill: rgb(0, 113, 188);"/>
			<path class="st25" d="M478.5,741.3v-2.3h2.5v2.3H478.5z M478.5,751.9v-9.3h2.5v9.3H478.5z" style="fill: rgb(0, 113, 188);"/>
			<path class="st25" d="M482.9,752.6l2.8,0.3c0,0.3,0.2,0.6,0.3,0.7c0.2,0.2,0.6,0.3,1.1,0.3c0.6,0,1.1-0.1,1.5-0.3&#10;&#9;&#9;&#9;&#9;c0.2-0.1,0.4-0.3,0.5-0.6c0.1-0.2,0.1-0.6,0.1-1.1v-1.4c-0.7,1-1.7,1.5-2.8,1.5c-1.3,0-2.2-0.5-3-1.6c-0.6-0.8-0.9-1.9-0.9-3.1&#10;&#9;&#9;&#9;&#9;c0-1.6,0.4-2.8,1.1-3.6c0.8-0.8,1.7-1.2,2.8-1.2c1.2,0,2.1,0.5,2.9,1.5v-1.3h2.3v8.4c0,1.1-0.1,1.9-0.3,2.5&#10;&#9;&#9;&#9;&#9;c-0.2,0.5-0.4,1-0.8,1.3c-0.3,0.3-0.8,0.6-1.3,0.7c-0.5,0.2-1.2,0.3-2.1,0.3c-1.6,0-2.7-0.3-3.4-0.8c-0.7-0.5-1-1.2-1-2.1&#10;&#9;&#9;&#9;&#9;C482.9,752.8,482.9,752.7,482.9,752.6z M485.1,747.1c0,1,0.2,1.7,0.6,2.2c0.4,0.5,0.9,0.7,1.4,0.7c0.6,0,1.1-0.2,1.5-0.7&#10;&#9;&#9;&#9;&#9;c0.4-0.5,0.6-1.2,0.6-2.1c0-1-0.2-1.7-0.6-2.2c-0.4-0.5-0.9-0.7-1.5-0.7c-0.6,0-1.1,0.2-1.5,0.7&#10;&#9;&#9;&#9;&#9;C485.3,745.4,485.1,746.1,485.1,747.1z" style="fill: rgb(0, 113, 188);"/>
			<path class="st25" d="M502.2,751.9h-2.5v-4.8c0-1-0.1-1.7-0.2-2c-0.1-0.3-0.3-0.5-0.5-0.7c-0.2-0.2-0.5-0.2-0.9-0.2&#10;&#9;&#9;&#9;&#9;c-0.4,0-0.8,0.1-1.2,0.4c-0.3,0.2-0.6,0.5-0.7,0.9c-0.1,0.4-0.2,1.1-0.2,2.1v4.2h-2.5v-9.3h2.3v1.4c0.8-1.1,1.8-1.6,3.1-1.6&#10;&#9;&#9;&#9;&#9;c0.5,0,1,0.1,1.5,0.3c0.5,0.2,0.8,0.4,1,0.8c0.2,0.3,0.4,0.7,0.5,1c0.1,0.4,0.1,0.9,0.1,1.7V751.9z" style="fill: rgb(0, 113, 188);"/>
			<path class="st25" d="M509.8,749l2.5,0.4c-0.3,0.9-0.8,1.6-1.5,2.1c-0.7,0.5-1.5,0.7-2.6,0.7c-1.6,0-2.8-0.5-3.6-1.6&#10;&#9;&#9;&#9;&#9;c-0.6-0.8-0.9-1.9-0.9-3.2c0-1.5,0.4-2.8,1.2-3.6c0.8-0.9,1.8-1.3,3.1-1.3c1.4,0,2.5,0.5,3.3,1.4c0.8,0.9,1.2,2.3,1.2,4.2h-6.2&#10;&#9;&#9;&#9;&#9;c0,0.7,0.2,1.3,0.6,1.7c0.4,0.4,0.9,0.6,1.4,0.6c0.4,0,0.7-0.1,1-0.3C509.5,749.8,509.7,749.4,509.8,749z M509.9,746.5&#10;&#9;&#9;&#9;&#9;c0-0.7-0.2-1.3-0.6-1.6c-0.4-0.4-0.8-0.6-1.3-0.6c-0.5,0-1,0.2-1.3,0.6c-0.4,0.4-0.5,0.9-0.5,1.6H509.9z" style="fill: rgb(0, 113, 188);"/>
			<path class="st25" d="M522.6,751.9h-2.3v-1.4c-0.4,0.5-0.8,0.9-1.3,1.2c-0.5,0.3-1,0.4-1.6,0.4c-1.1,0-2-0.4-2.8-1.3&#10;&#9;&#9;&#9;&#9;c-0.8-0.9-1.1-2.1-1.1-3.6c0-1.6,0.4-2.8,1.1-3.6c0.7-0.8,1.7-1.2,2.8-1.2c1,0,1.9,0.4,2.7,1.3v-4.6h2.5V751.9z M516,747.1&#10;&#9;&#9;&#9;&#9;c0,1,0.1,1.7,0.4,2.2c0.4,0.6,1,1,1.7,1c0.6,0,1.1-0.2,1.5-0.7c0.4-0.5,0.6-1.2,0.6-2.2c0-1.1-0.2-1.8-0.6-2.3&#10;&#9;&#9;&#9;&#9;c-0.4-0.5-0.9-0.7-1.5-0.7c-0.6,0-1.1,0.2-1.5,0.7C516.2,745.5,516,746.1,516,747.1z" style="fill: rgb(0, 113, 188);"/>
			<path class="st25" d="M529.2,751.9v-12.9h2.5v4.6c0.8-0.9,1.7-1.3,2.7-1.3c1.1,0,2.1,0.4,2.8,1.2c0.7,0.8,1.1,2,1.1,3.5&#10;&#9;&#9;&#9;&#9;c0,1.6-0.4,2.8-1.1,3.7c-0.8,0.9-1.7,1.3-2.8,1.3c-0.5,0-1.1-0.1-1.6-0.4c-0.5-0.3-1-0.7-1.3-1.2v1.4H529.2z M531.7,747.1&#10;&#9;&#9;&#9;&#9;c0,1,0.2,1.7,0.5,2.1c0.4,0.7,1,1,1.7,1c0.5,0,1-0.2,1.4-0.7c0.4-0.5,0.6-1.2,0.6-2.2c0-1.1-0.2-1.8-0.6-2.3&#10;&#9;&#9;&#9;&#9;c-0.4-0.5-0.9-0.7-1.5-0.7c-0.6,0-1.1,0.2-1.5,0.7C531.9,745.4,531.7,746.1,531.7,747.1z" style="fill: rgb(0, 113, 188);"/>
			<path class="st25" d="M538.8,642.6h2.6l2.2,6.6l2.2-6.6h2.6l-3.3,9l-0.6,1.6c-0.2,0.5-0.4,1-0.6,1.2c-0.2,0.3-0.4,0.5-0.7,0.7&#10;&#9;&#9;&#9;&#9;c-0.3,0.2-0.6,0.3-0.9,0.4c-0.4,0.1-0.8,0.1-1.3,0.1c-0.5,0-0.9,0-1.4-0.1l-0.2-1.9c0.4,0.1,0.7,0.1,1,0.1c0.6,0,1-0.2,1.3-0.5&#10;&#9;&#9;&#9;&#9;c0.3-0.3,0.5-0.8,0.6-1.3L538.8,642.6z" style="fill: rgb(0, 113, 188);"/>
		</g>
	</g>
</svg>