<?xml version="1.0" standalone="no"?>
<!DOCTYPE svg PUBLIC "-//W3C//DTD SVG 20010904//EN"
 "http://www.w3.org/TR/2001/REC-SVG-20010904/DTD/svg10.dtd">
<svg version="1.0" xmlns="http://www.w3.org/2000/svg"
 width="303.000000pt" height="260.000000pt" viewBox="0 0 303.000000 260.000000"
 preserveAspectRatio="xMidYMid meet">
<metadata>
Created by potrace 1.15, written by Peter Selinger 2001-2017
</metadata>
<g transform="translate(0.000000,260.000000) scale(0.100000,-0.100000)"
fill="#000000" stroke="none">
<path d="M793 2584 c-152 -33 -315 -118 -454 -237 -105 -89 -160 -161 -214
-275 -111 -232 -125 -287 -125 -505 0 -273 50 -475 182 -742 49 -98 148 -256
213 -343 28 -36 32 -47 25 -72 -9 -30 -4 -66 11 -86 13 -16 -56 -42 -125 -47
-47 -3 -63 -9 -78 -27 -26 -32 -23 -76 7 -105 22 -23 32 -25 108 -25 64 0 88
-4 97 -16 26 -31 58 -38 202 -45 134 -6 153 -9 200 -34 50 -26 55 -27 182 -23
93 4 142 10 170 22 44 20 142 24 173 8 35 -19 125 -25 183 -12 104 22 197 24
247 5 40 -15 64 -17 182 -10 75 4 208 9 296 10 131 2 174 6 240 24 147 42 156
43 222 31 35 -7 78 -9 96 -6 73 14 150 83 172 154 6 21 5 22 -34 16 -22 -3
-63 -1 -91 6 -42 10 -55 19 -80 55 -17 24 -45 56 -64 72 -31 25 -35 35 -45
106 -13 96 -14 296 -1 395 5 40 17 169 25 285 8 117 24 301 35 409 11 109 20
204 20 211 0 7 24 23 54 36 72 29 141 91 173 155 38 73 43 180 13 258 -27 71
-94 142 -170 177 -48 23 -68 26 -155 26 -88 0 -107 -3 -157 -27 -32 -15 -78
-47 -102 -73 -145 -149 -98 -413 89 -502 19 -9 35 -19 35 -22 0 -3 7 -55 15
-115 12 -96 12 -151 0 -430 -8 -177 -20 -364 -25 -416 -33 -301 -57 -420 -85
-420 -27 0 -143 299 -169 439 -8 42 -40 188 -70 325 -31 138 -65 324 -76 415
-12 91 -23 174 -26 184 -4 12 12 37 50 78 43 46 60 74 76 125 25 83 25 115 0
197 -26 84 -96 164 -178 204 -52 26 -67 28 -167 28 -127 0 -174 -16 -247 -84
l-44 -40 -55 55 c-109 112 -236 186 -383 224 -94 24 -275 26 -373 4z m372 -44
c145 -37 324 -150 395 -250 19 -27 19 -28 0 -79 -39 -100 -20 -230 44 -314 34
-45 117 -100 174 -117 23 -7 42 -14 42 -15 0 0 9 -42 20 -93 54 -249 41 -499
-50 -942 -16 -79 -29 -144 -27 -145 1 -1 29 -9 62 -19 43 -13 72 -30 103 -61
23 -23 42 -46 42 -51 0 -5 -46 -8 -102 -6 -123 4 -185 -14 -261 -78 -83 -68
-237 -99 -405 -80 -53 6 -98 12 -100 14 -2 3 2 14 8 26 27 50 60 167 71 247
13 97 -1 215 -51 453 -83 392 -193 574 -387 641 -73 25 -143 25 -194 -1 -48
-25 -120 -119 -147 -193 -49 -131 -50 -203 -7 -367 51 -189 132 -290 232 -290
49 0 78 21 93 66 18 52 7 102 -35 179 -40 71 -47 71 -59 3 -13 -72 -65 -50
-107 45 -27 64 -30 201 -5 260 40 96 111 113 194 47 59 -46 91 -86 125 -155
26 -51 117 -358 138 -466 22 -114 -5 -271 -69 -399 l-27 -52 -155 -3 c-85 -2
-173 -8 -195 -14 -45 -11 -59 -3 -70 40 -4 18 -1 31 10 43 16 15 12 23 -53
114 -134 189 -199 304 -266 472 -90 227 -129 477 -107 685 14 121 37 195 118
363 46 95 67 127 131 194 95 99 182 165 294 222 198 102 386 126 583 76z
m1658 -167 c65 -29 120 -84 149 -150 16 -36 19 -62 17 -122 -4 -67 -8 -83 -38
-129 -129 -201 -446 -184 -550 31 -30 62 -30 158 -1 224 68 155 255 220 423
146z m-797 -4 c67 -25 123 -74 159 -140 26 -47 30 -64 30 -134 0 -70 -4 -87
-30 -134 -58 -105 -160 -162 -290 -162 -137 0 -239 61 -296 176 -28 57 -31 71
-27 132 2 37 12 84 22 104 75 155 258 222 432 158z m682 -572 c26 6 27 -7 12
-125 -5 -40 -19 -193 -30 -340 -11 -147 -28 -339 -37 -427 -15 -152 -14 -370
3 -462 l6 -31 -38 9 c-22 5 -56 9 -76 9 l-37 0 14 48 c14 46 48 295 60 437 3
39 12 205 19 370 11 248 11 318 0 405 -7 58 -13 108 -14 111 0 3 21 2 48 -2
26 -4 57 -5 70 -2z m-609 -182 c18 -145 82 -465 162 -810 20 -90 89 -276 136
-369 l25 -48 44 6 c59 8 176 -9 220 -32 19 -10 52 -40 72 -67 44 -59 90 -85
150 -85 23 0 42 -4 42 -8 0 -13 -52 -58 -87 -76 -26 -13 -51 -15 -135 -10 -94
6 -111 4 -193 -22 -82 -25 -105 -28 -255 -29 -91 -1 -211 -6 -267 -13 -74 -8
-116 -9 -150 -1 -137 30 -180 33 -260 16 -97 -21 -158 -21 -213 -2 -61 21
-146 19 -216 -6 -45 -17 -84 -22 -164 -23 -93 -1 -110 2 -150 23 -39 21 -68
26 -207 36 -152 11 -163 13 -181 35 -18 22 -30 25 -112 30 -74 4 -95 9 -104
23 -20 31 4 51 70 58 32 3 77 14 99 24 121 54 351 59 612 14 153 -27 194 -30
293 -26 140 7 229 32 287 82 84 72 116 80 318 80 131 0 183 -3 190 -12 6 -7
16 -9 22 -5 9 6 13 72 15 247 3 236 2 243 -31 415 -39 205 -79 331 -168 530
-35 80 -67 151 -70 158 -3 8 6 12 28 13 19 0 59 8 89 18 30 10 58 15 61 12 4
-3 16 -82 28 -176z m-160 -68 c81 -187 116 -301 152 -487 33 -167 34 -184 32
-379 -1 -112 -6 -208 -10 -212 -5 -5 -29 -11 -53 -15 -44 -5 -45 -5 -68 36
-26 47 -88 95 -144 112 -21 6 -38 16 -38 23 0 6 9 51 19 100 66 305 97 663 72
834 -7 46 -15 90 -18 99 -4 10 -3 15 0 11 4 -3 29 -58 56 -122z"/>
<path d="M632 2357 c-17 -7 -46 -25 -62 -40 -53 -50 -52 -104 3 -138 115 -70
305 74 212 161 -29 27 -103 36 -153 17z"/>
<path d="M1065 2018 c-34 -18 -45 -40 -45 -88 0 -55 28 -102 79 -137 42 -28
80 -29 114 -3 69 55 24 192 -76 229 -35 14 -47 13 -72 -1z"/>
<path d="M264 1922 c-80 -67 -72 -194 10 -178 74 15 128 116 96 177 -14 25
-77 25 -106 1z"/>
<path d="M152 1557 c-34 -36 -45 -79 -32 -126 20 -75 88 -95 135 -39 24 28 27
38 23 87 -4 44 -10 59 -32 78 -34 29 -67 29 -94 0z"/>
<path d="M1347 1482 c-55 -61 25 -212 111 -212 61 0 78 63 40 140 -38 75 -115
112 -151 72z"/>
<path d="M2763 2310 c-87 -53 -82 -189 8 -236 64 -33 138 15 154 98 10 54 -24
124 -69 143 -46 19 -55 19 -93 -5z"/>
<path d="M1968 2284 c-33 -17 -68 -81 -68 -121 1 -45 35 -110 69 -127 49 -26
95 -20 136 15 74 65 67 176 -15 232 -30 21 -85 21 -122 1z"/>
</g>
</svg>
